<?xml version="1.0" encoding="utf-8"?>
<!-- Generator: Adobe Illustrator 23.0.2, SVG Export Plug-In . SVG Version: 6.00 Build 0)  -->
<svg version="1.1" id="Layer_1" xmlns="http://www.w3.org/2000/svg" xmlns:xlink="http://www.w3.org/1999/xlink" x="0px" y="0px"
	 viewBox="0 0 595.3 413.9" style="enable-background:new 0 0 595.3 413.9;" xml:space="preserve">
<style type="text/css">
	.st0{fill:#F8FAFF;}
	.st1{opacity:0.1;fill:#ECAA46;enable-background:new    ;}
	.st2{fill:#FFFFFF;}
	.st3{fill:#3ACC6C;}
	.st4{opacity:0.1;fill:none;stroke:#ECAA46;stroke-width:1.3747;stroke-miterlimit:10;enable-background:new    ;}
	.st5{fill:#3F3D56;}
	.st6{opacity:0.1;enable-background:new    ;}
	.st7{fill:#ECAA46;}
	.st8{fill:url(#SVGID_1_);}
	.st9{fill:#A0616A;}
	.st10{fill:#FF6F61;}
	.st11{opacity:0.1;fill:none;stroke:#000000;stroke-width:0.4582;stroke-miterlimit:10;enable-background:new    ;}
</style>
<rect x="0" y="0" class="st0" width="595.3" height="414"/>
<g>
	<path class="st1" d="M560.1,227.7c0,67.8-55.1,122.8-122.9,122.8c-6.5,0-13-0.5-19.4-1.5H223.2c-7.5,1-15.1,1.5-22.7,1.5
		C126.6,350.5,64,302,42.8,235c-5.1-16.2-7.7-33-7.7-50c0-91.4,74.1-165.4,165.4-165.4c73.6,0,135.9,48,157.4,114.5
		c22.2-18.9,50.3-29.2,79.4-29.1C505.2,104.9,560.1,159.9,560.1,227.7z"/>
	<path class="st1" d="M513,324.4c-26.9,21-61.4,29.9-95.1,24.5H223.2c-7.5,1-15.1,1.5-22.7,1.5C126.6,350.5,64,302,42.8,235
		c15.8-33.9,56.6-58,104.3-58c46.5,0,86.4,22.9,103,55.4c8.2-1.5,16.5-2.2,24.8-2.2c48.2,0,89.3,24.6,104.7,59
		c12.8-3.9,26.2-5.9,39.6-5.8C458.6,283.4,493.2,299.7,513,324.4z"/>
	<rect x="161.3" y="165.2" class="st2" width="217.2" height="17"/>
	<rect x="161.3" y="201.8" class="st2" width="217.2" height="17"/>
	<rect x="161.3" y="238.5" class="st2" width="217.2" height="17"/>
	<path class="st3" d="M422.3,172.3l-1.2,1.2l3.7,3.7l8.2-8.2l-1.2-1.2l-7.1,7.1L422.3,172.3z M432.3,173.9c0,3.6-2.9,6.6-6.6,6.6
		c-3.6,0-6.6-2.9-6.6-6.6s2.9-6.6,6.6-6.6c0.6,0,1.2,0.1,1.8,0.2l1.3-1.3c-1-0.4-2-0.6-3.1-0.6c-4.6,0-8.2,3.7-8.2,8.2
		s3.7,8.2,8.2,8.2c4.6,0,8.2-3.7,8.2-8.2l0,0L432.3,173.9z"/>
	<path class="st3" d="M422.3,209l-1.2,1.2l3.7,3.7l8.2-8.2l-1.2-1.2l-7.1,7.1L422.3,209z M432.3,210.5c0,3.6-2.9,6.6-6.6,6.6
		c-3.6,0-6.6-2.9-6.6-6.6c0-3.6,2.9-6.6,6.6-6.6c0.6,0,1.2,0.1,1.8,0.2l1.3-1.3c-1-0.4-2-0.6-3.1-0.6c-4.6,0-8.2,3.7-8.2,8.2
		s3.7,8.2,8.2,8.2c4.6,0,8.2-3.7,8.2-8.2L432.3,210.5z"/>
	<ellipse class="st1" cx="297.9" cy="382.6" rx="233.7" ry="11.7"/>
	<path class="st1" d="M451.4,133.9c-0.4-0.6-0.6-1.2-0.6-1.9c0-4.2,8.5-7.6,19-7.6s19,3.4,19,7.6c0,0.8-0.3,1.5-0.8,2.1
		c11.7,1.3,19.6,3.7,19.6,6.6c0,4.2-17.4,7.6-39,7.6c-21.5,0-38.9-3.4-38.9-7.6C429.7,137.8,438.5,135.2,451.4,133.9z"/>
	<path class="st1" d="M383.1,53.7c-0.3-0.5-0.5-1-0.5-1.6c0-3.4,6.9-6.2,15.5-6.2c8.6,0,15.5,2.7,15.5,6.2c0,0.6-0.2,1.3-0.6,1.8
		c9.5,1.1,16,3.1,16,5.4c0,3.4-14.2,6.2-31.8,6.2s-31.8-2.7-31.8-6.2C365.4,56.8,372.6,54.7,383.1,53.7z"/>
	<path class="st1" d="M175.2,83.3c-0.5-0.5-0.9-1.1-1-1.7c-0.9-4.1,6.7-9.2,16.9-11.5c10.3-2.3,19.3-0.8,20.2,3.2
		c0.2,0.8,0,1.6-0.3,2.3c11.7-1.3,19.9-0.6,20.5,2.1c0.9,4.1-15.4,11.2-36.4,15.8s-38.8,5.2-39.7,1.1
		C154.8,91.8,162.9,87.3,175.2,83.3z"/>
	<path class="st4" d="M128.9,79.5c-1.1-0.6-2.5,0-3.2,1s-0.9,2.3-1.1,3.5c-0.4,2.7-0.7,5.8,1.1,7.9c-3-9.1-11.6-16-21.1-17"/>
	<path class="st4" d="M221.9,122.2c-0.7-0.4-1.6,0-2.1,0.6c-0.4,0.7-0.7,1.4-0.7,2.2c-0.3,1.7-0.5,3.7,0.7,5
		c-2.1-5.9-7.3-10.2-13.5-10.9"/>
	<path class="st4" d="M373.4,95c-0.7-0.4-1.6,0-2.1,0.6c-0.4,0.7-0.7,1.5-0.7,2.2c-0.3,1.7-0.5,3.7,0.7,5
		C369.2,97,364,92.8,357.7,92"/>
	<path class="st5" d="M128.8,371.1c0,1.2-0.1,2.4-0.4,3.6c0,0.2-0.1,0.5-0.1,0.6c-1.3,5.2-5,9-9.4,9.3c-0.1,0-0.3,0-0.5,0
		c-4.6,0-8.6-4-9.8-9.5c0-0.1-0.1-0.3-0.1-0.5c-0.2-1.2-0.4-2.4-0.4-3.6c0-7.5,4.6-13.5,10.3-13.5S128.8,363.7,128.8,371.1z"/>
	<path class="st6" d="M128.8,371.1c0,1.2-0.1,2.4-0.4,3.6c0,0.2-0.1,0.5-0.1,0.6c-0.2,0-0.3,0-0.5,0c-1.1-0.1-2.3-0.2-3.4-0.5
		c-1,0.3-2,0.5-3,0.7c-0.8,0.1-1.6,0.2-2.4,0.2h-0.8c-0.9,0-1.9-0.1-2.8-0.2c-1.5-0.2-3-0.6-4.4-1.1c-0.8,0.3-1.6,0.5-2.4,0.6
		c0-0.1-0.1-0.3-0.1-0.5c-0.2-1.2-0.4-2.4-0.4-3.6c0-7.5,4.6-13.5,10.3-13.5S128.8,363.7,128.8,371.1z"/>
	<path class="st7" d="M150.8,346c0-3.3-0.8-6.5-2.2-9.4l-12.1,3.8l10.6-6.3c-3.6-5.2-9.4-8.5-15.7-9c-0.5-0.8-1-1.5-1.6-2.2
		l-17.4,5.4l14.3-8.4c-9.2-7-22.3-5.3-29.4,3.9c-1.7,2.2-2.9,4.7-3.6,7.3l14.9,17.2l-16.2-11.7c-9.4,6.7-11.7,19.8-5,29.2
		c5.3,7.5,15,10.7,23.7,7.8c4.3,1.6,9,1.7,13.4,0.4c11.3,2.5,22.5-4.7,25-16c0.3-1.5,0.5-3,0.5-4.5c0-0.5,0-0.9,0-1.4
		C150.6,350.1,150.9,348,150.8,346z"/>
	<path class="st6" d="M150.5,349.9c-6.4-1.2-13-1.3-19.4-0.2c-7.3,1.2-14.7,3.9-21.8,1.9c-4.2-1.1-7.8-3.8-11.9-5.2
		c-3.9-1.4-8.2-1.6-12.3-0.7c-4.5,10.7,0.6,23,11.3,27.4c4.7,2,9.9,2.1,14.7,0.5c4.3,1.6,9,1.7,13.4,0.4c11.3,2.5,22.5-4.7,25-16
		c0.3-1.5,0.5-3,0.5-4.5c0-0.5,0-0.9,0-1.4C150.2,351.3,150.3,350.6,150.5,349.9z"/>
	<path class="st7" d="M499.7,348.1l18.7-11c-2.5-4.3-5.8-8.2-9.6-11.5l-35.3,11l27.6-16.2c-21.8-11.9-49-3.9-61,17.8
		c-3.6,6.6-5.5,14-5.5,21.6c0,24.8,20.1,25.7,44.9,25.7c24.8,0,44.9-0.9,44.9-25.7c0-6.3-1.3-12.5-3.9-18.2L499.7,348.1z"/>
	<path class="st6" d="M504.5,372.2c-1.9-2.1-4.3-3.7-6.6-5.2c-3.4-2.2-6.9-4.6-10.9-5.3c-3.5-0.7-7.1-0.1-10.7-0.3
		c-6.2-0.4-12.1-3.1-16.4-7.5c-2.6-2.6-4.6-5.9-7.6-7.9c-3.3-2.2-7.5-2.6-11.4-2.1c-1.1,0.2-2.3,0.4-3.4,0.7
		c-1.8,4.9-2.7,10-2.7,15.2c0,24.8,20.1,25.7,44.9,25.7c12,0,23-0.2,31-3.2l-1.3-2.5C507.9,377.1,506.5,374.4,504.5,372.2z"/>
	
		<linearGradient id="SVGID_1_" gradientUnits="userSpaceOnUse" x1="336.238" y1="413.9848" x2="336.238" y2="603.2134" gradientTransform="matrix(1 0 0 -1 -27.15 800.9202)">
		<stop  offset="0" style="stop-color:#808080;stop-opacity:0.25"/>
		<stop  offset="0.54" style="stop-color:#808080;stop-opacity:0.12"/>
		<stop  offset="1" style="stop-color:#808080;stop-opacity:0.1"/>
	</linearGradient>
	<path class="st8" d="M341.8,383c-0.2-0.7-0.6-1.4-1.3-1.8c-0.1-0.1-0.2-0.1-0.2-0.1c-0.6-0.3-1.3-0.5-2-0.5
		c-2.6-0.3-5.4-0.8-7.4-2.6c-0.6-0.5-1.1-1.1-1.6-1.6c-1.1-1.1-2.3-2.1-3.6-2.9c-0.3-0.2-0.6-0.4-0.9-0.3c-0.5-0.4-0.9-0.9-1.2-1.4
		c-0.3-0.7-0.4-1.5-0.4-2.2c-0.3-7.8-1.9-15.8-0.1-23.4c0.2-0.9,0.1-1.7-0.2-2.6c0.4-0.2,0.7-0.3,1.1-0.5c3.1-1.6,5.9-3.8,8.1-6.5
		c1.1-1.1,1.9-2.5,2.5-3.9c0.7-1.9,0.6-4.1,0.3-6.1c-0.5-3.6-1.2-7.2-2.2-10.7l-2.1-8.7c-0.5-1.9-1-3.9-2-5.6h0.1
		c-0.1-1-0.1-1.9-0.3-2.9c-0.3-1.7-0.7-3.5-1.2-5.2c-0.2-0.6-0.3-1.5-0.5-2.4c0.4-3.9,1.9-7.7,2.2-11.6c0.1,0.1,0.2,0.2,0.2,0.3
		c0.6,0.8,1.5,1.4,2.1,2.1c1.2,1.5,1.5,3.4,1.7,5.3c0.1,1,0.3,1.9,0.7,2.8c0.2,0.4,0.4,0.7,0.6,1.1c0.3,0.8,0.1,1.7-0.1,2.5
		c-0.2,1.2-0.3,2.5,0.5,3.4c0.5,0.4,1.1,0.7,1.7,0.7c1.2,0.1,2.4-0.4,3.2-1.4c0.9-1.1,1-2.6,1-4c0-1.1-0.2-2.1-0.5-3.1
		c-0.5-1.1-1.1-2.1-1.8-3c-1.2-1.9-2.1-4-3.1-6c-0.8-1.6-1.7-3.2-2.8-4.7c-0.6-0.8-1.2-1.6-1.7-2.4c-0.2-0.3-1-2.3-1.8-4.4
		c0.4-0.1,0.8-0.2,0.9-0.6c0-0.2,0-0.4-0.1-0.7c-1.7-5.9-2-12.2-0.9-18.2c0.3-1.6,0.7-3.3,0.7-4.9c0-1.7-0.5-3.4-1.7-4.6
		c-0.8-0.7-1.7-1.2-2.5-1.9c-1.5-1.3-2.1-3.4-2.5-5.3c-0.1-0.9-0.4-1.8-0.8-2.6c-0.1-0.2-0.3-0.4-0.4-0.5c1.1-2.9,1.6-6,1.6-9.1
		c0-2.3-0.3-4.7-0.9-6.9c0.2,0.6,0.5,1.2,0.7,1.9c-1.9-10-9.4-17.5-18.4-17.5h-0.2c-10.2,0-18.4,9.6-18.8,21.6
		c-4.1,2.6-6.3,7.4-5.6,12.2c-2.3,2.3-3.6,5.4-3.6,8.7c0.1,6.9,5.7,12.5,12.7,12.5c2.1,0,4.2-0.5,6.1-1.6c0.1,1,0.3,2.1,0.6,3.1
		c0.4,1.6,1.1,3.1,1.4,4.8c0.3,1.6,0.3,3.4-0.6,4.8c-0.7,1.1-1.2,2.3-1.6,3.5c-0.3,1.5-0.4,3-0.3,4.6c0,1.4,0.1,2.8,0.1,4.2
		c0.2,5.5,0.3,11-0.8,16.4c-0.5,2.4-1.8,4.8-1.5,7.3c0.1,0.9,0.4,1.8,0.8,2.6c0.5,1.2,1.1,2.5,2.2,3.1c0.6,0.3,1.2,0.4,1.8,0.4
		c0.8,0,1.5,0,2.3-0.1c0.5-0.1,1.1-0.4,0.9-0.8c-0.1-0.2-0.2-0.3-0.3-0.4c-1.2-1-1.9-2.4-1.9-3.9c0-2.2,1.4-4.3,1-6.4
		c-0.3-1.3-1.3-2.6-0.9-3.9c0.9-2.9,1.1-6,1.8-9c0.3-1,0.5-1.9,0.8-2.9c0.5-1.7,0.9-3.4,1.3-5.2c0.9-4.1,1.4-8.4,1.4-12.6
		c0.7,1.4,1.2,2.8,1.5,4.4c0.1,1.1,0.1,2.3,0.6,3.3c0.5,1,1.6,1.7,2.2,2.7c-0.3,0.6-0.5,1.1-0.9,1.7c-0.6,0.8-1.2,1.7-1.8,2.6
		c-0.5,0.9-0.8,1.9-1.2,2.8c-1.3,3.1-3.5,6-3.9,9.3c-0.3,2.7,0.8,5.4,1.8,7.9c0.6,1.5,1.2,3,1.9,4.5c0,0.1,0.1,0.2,0.1,0.3
		c0.1,0.8,0.2,1.5,0.3,2.3h1.7c0.7,0.9,1.5,1.8,1.9,2.9c0.3,0.8,0.4,1.7,0.5,2.6c0.3,4.1,0.3,8.4,1.8,12.2c0.5,1.1,0.9,2.3,1,3.5
		c0,1,0.2,1.9,0.5,2.9c0.2,1,0.4,2,0.4,3.1c0.1,1.8,0,3.6-0.1,5.3c-3.7,2.3-6.7,5.6-10,8.5c-4.5,3.9-9.7,7.1-15.3,9.4
		c0-0.1,0-0.2,0-0.3c-1.6-0.1-3.1,0.5-4.5,1.2c-0.5,0.2-1,0.5-1.5,0.8c-0.3,0.1-0.5,0.3-0.7,0.5c-0.6,0.7-0.2,1.9,0.3,2.7
		c1.6,2.9,3.3,5.7,4.9,8.6c0.4,0.7,0.8,1.3,1.1,2c0.5,1.2,0.9,2.4,1.5,3.6c0.7,1.2,1.6,2.4,2.5,3.4c1.1,1.2,2.1,2.4,3.2,3.6
		c0.3,0.4,0.8,0.8,1.2,1.1c0.5,0.3,1.1,0.2,1.6-0.1c0.2-0.2,0.3-0.3,0.4-0.6c0.2-0.5,0.4-1.1,0.3-1.7c0-0.9-0.5-1.8-1.2-2.5
		c-0.5-0.4-1-0.7-1.2-1.2c-0.1-0.3-0.1-0.6-0.1-0.9c0.2-2.7,0.5-5.4,1.3-8c0.6-1.9,1.5-3.9,1.1-5.9c-0.3-0.1-0.6-0.2-0.9-0.2
		c0.3-0.4,0.6-0.7,1-1c1.6-1.5,3.6-2.6,5.5-3.7l8.6-4.8c0.4,2.2,0.8,4.4,1.2,6.6c0.1,0.8,0.3,1.5,0.4,2.3l1.9,10.5
		c0.2,0.8,0.3,1.7,0.4,2.6c0.1,0.9,0,1.7,0,2.6c0,1,0,1.9-0.2,2.8c-0.1,0.5-0.2,1.1-0.4,1.6h-0.1c-0.2,0.1-0.3,0.3-0.4,0.5
		c-0.5,1.3-0.9,2.6-1.1,4c-0.1,1.1,0.1,2.2,0.6,3.1c0.1,0.2,0.3,0.4,0.5,0.5c0.2,0.1,0.5,0.1,0.7,0.1l11.3-0.2
		c1.4-0.1,2.8,0,4.2,0.2c1.1,0.2,2.2,0.5,3.3,0.5c2.6,0.2,5-1,7.3-2.1c0.4-0.1,0.7-0.4,0.9-0.7C341.9,383.7,341.9,383.3,341.8,383z"
		/>
	<path class="st5" d="M281.2,232.6c-0.1-0.6-0.1-1.2-0.1-1.8c0-4.2,2.1-8.1,5.6-10.4c0.4-11.9,8.5-21.4,18.4-21.4
		c10.2,0,18.5,10,18.5,22.3s-8.2,22.3-18.5,22.3c-1,0-1.9-0.1-2.9-0.3c-1.2,6.7-7.6,11.2-14.4,10s-11.2-7.6-10-14.4
		C278.4,236.7,279.5,234.4,281.2,232.6L281.2,232.6z"/>
	<path class="st6" d="M306.1,202c-9.9,0-18,9.5-18.4,21.4c-3.5,2.3-5.6,6.2-5.6,10.4c0,0.6,0,1.2,0.1,1.8c-2.3,2.3-3.5,5.4-3.5,8.7
		c0,0.5,0,1,0.1,1.5c-1.7-4.5-0.7-9.6,2.7-13.1c-0.1-0.6-0.1-1.2-0.1-1.8c0-4.2,2.1-8.1,5.6-10.4c0.4-11.9,8.5-21.4,18.4-21.4
		c8.8,0,16.1,7.4,18,17.3C320.7,208,314,202,306.1,202z"/>
	<path class="st9" d="M316.5,226c-0.1,0.7,0,1.5,0.2,2.2c0.4,1,1.5,1.9,1.2,2.9c-0.2,0.7-0.9,1-1.5,1.3c-3.1,1-6.5,0.4-9.7,0.6
		c-1.1,0.1-2.2,0.1-3.3,0.1c-1.1,0-2.2-0.4-3-1.1c1.7-0.8,3.3-1.8,4.8-3c0.4-0.3,0.7-0.6,1-0.9c0.7-0.9,0.8-2.1,0.8-3.3s0-2.3,0-3.4
		c2.3,0,4.7,0,7,0c0.8,0,3-0.2,3.3,0.6c0.1,0.4-0.4,1.6-0.5,2C316.6,224.6,316.6,225.3,316.5,226z"/>
	<path class="st6" d="M316.5,226c-0.1,0.7,0,1.5,0.2,2.2c0.4,1,1.5,1.9,1.2,2.9c-0.2,0.7-0.9,1-1.5,1.3c-3.1,1-6.5,0.4-9.7,0.6
		c-1.1,0.1-2.2,0.1-3.3,0.1c-1.1,0-2.2-0.4-3-1.1c1.7-0.8,3.3-1.8,4.8-3c0.4-0.3,0.7-0.6,1-0.9c0.7-0.9,0.8-2.1,0.8-3.3s0-2.3,0-3.4
		c2.3,0,4.7,0,7,0c0.8,0,3-0.2,3.3,0.6c0.1,0.4-0.4,1.6-0.5,2C316.6,224.6,316.6,225.3,316.5,226z"/>
	<path class="st9" d="M328.2,268.4c0.3,2.6,0,5.3-0.9,7.7c-5-0.5-10.1-0.8-15.1-0.8c0.9-1.2,1.4-2.5,1.6-4c0.1-1.4,0.1-2.7,0-4.1
		l9.8,0c0.7,0,1.4,0,2.1,0.2C326.7,267.6,327.2,268.3,328.2,268.4z"/>
	<path class="st9" d="M330.9,273.8c0.5,0.8,1.1,1.6,1.7,2.4c1,1.5,2,3.1,2.7,4.7c1,2,1.9,4.1,3.1,6c0.7,0.9,1.3,1.9,1.7,3
		c0.3,1,0.5,2,0.5,3.1c0,1.4-0.1,2.9-0.9,4c-0.8,1-1.9,1.5-3.2,1.4c-0.6,0-1.2-0.3-1.6-0.7c-0.8-0.8-0.7-2.2-0.5-3.4
		c0.2-0.8,0.4-1.7,0.1-2.5c-0.2-0.4-0.4-0.8-0.6-1.1c-0.4-0.9-0.6-1.8-0.7-2.8c-0.2-1.8-0.5-3.8-1.7-5.2c-0.6-0.8-1.5-1.3-2.1-2.1
		c-0.3-0.4-0.6-0.9-0.9-1.3c-0.5-0.6-1.2-1-1.5-1.7c-0.1-0.4-0.2-0.9-0.3-1.4c-0.2-0.7-0.5-1.5-0.8-2.1c-1.1-2.6-1.4-5.4-1.7-8.2
		c1.2,0,2.4-0.3,3.5-0.7C327.4,265.2,330.6,273.3,330.9,273.8z"/>
	<path class="st6" d="M330.9,273.8c0.5,0.8,1.1,1.6,1.7,2.4c1,1.5,2,3.1,2.7,4.7c1,2,1.9,4.1,3.1,6c0.7,0.9,1.3,1.9,1.7,3
		c0.3,1,0.5,2,0.5,3.1c0,1.4-0.1,2.9-0.9,4c-0.8,1-1.9,1.5-3.2,1.4c-0.6,0-1.2-0.3-1.6-0.7c-0.8-0.8-0.7-2.2-0.5-3.4
		c0.2-0.8,0.4-1.7,0.1-2.5c-0.2-0.4-0.4-0.8-0.6-1.1c-0.4-0.9-0.6-1.8-0.7-2.8c-0.2-1.8-0.5-3.8-1.7-5.2c-0.6-0.8-1.5-1.3-2.1-2.1
		c-0.3-0.4-0.6-0.9-0.9-1.3c-0.5-0.6-1.2-1-1.5-1.7c-0.1-0.4-0.2-0.9-0.3-1.4c-0.2-0.7-0.5-1.5-0.8-2.1c-1.1-2.6-1.4-5.4-1.7-8.2
		c1.2,0,2.4-0.3,3.5-0.7C327.4,265.2,330.6,273.3,330.9,273.8z"/>
	<circle class="st9" cx="311.7" cy="216.8" r="8.3"/>
	<path class="st9" d="M328.2,300.9c1.6,1.8,2.2,4.3,2.7,6.6l2.1,8.6c0.9,3.5,1.6,7,2.1,10.6c0.2,2,0.3,4.1-0.3,6.1
		c-0.6,1.4-1.4,2.7-2.4,3.9c-2.2,2.7-4.9,4.9-8,6.5c-1.6,0.8-3.3,1.5-5,2.2c-2.5,1.1-4.8,2.5-7.2,3.8l-8.9,5
		c-1.9,1.1-3.8,2.2-5.4,3.7c-1.5,1.4-2.6,3.1-3.3,5c-0.1,0.5-0.4,1-0.8,1.3c-0.5,0.3-1.2,0.2-1.8,0.1c-4.4-1.5-7.3-5.7-7.1-10.4
		c6.5-2.3,12.6-5.8,17.8-10.4c4-3.5,7.6-7.7,12.4-9.8c2.1-0.9,4.7-1.6,5.7-3.7c0.4-1,0.6-2,0.5-3.1c0.1-2.9,0.2-5.8-0.4-8.6
		c-0.5-2.4-1.4-4.7-2-7c-1.4-4.7-1.8-9.5-2.3-14.4c3.2-0.4,6.4-0.6,9.5-0.6c0.3,0,0.6,0,0.8,0.2c0.1,0.2,0.2,0.4,0.2,0.6
		C327.3,298.5,327.3,300,328.2,300.9z"/>
	<path class="st6" d="M328.2,300.9c1.6,1.8,2.2,4.3,2.7,6.6l2.1,8.6c0.9,3.5,1.6,7,2.1,10.6c0.2,2,0.3,4.1-0.3,6.1
		c-0.6,1.4-1.4,2.7-2.4,3.9c-2.2,2.7-4.9,4.9-8,6.5c-1.6,0.8-3.3,1.5-5,2.2c-2.5,1.1-4.8,2.5-7.2,3.8l-8.9,5
		c-1.9,1.1-3.8,2.2-5.4,3.7c-1.5,1.4-2.6,3.1-3.3,5c-0.1,0.5-0.4,1-0.8,1.3c-0.5,0.3-1.2,0.2-1.8,0.1c-4.4-1.5-7.3-5.7-7.1-10.4
		c6.5-2.3,12.6-5.8,17.8-10.4c4-3.5,7.6-7.7,12.4-9.8c2.1-0.9,4.7-1.6,5.7-3.7c0.4-1,0.6-2,0.5-3.1c0.1-2.9,0.2-5.8-0.4-8.6
		c-0.5-2.4-1.4-4.7-2-7c-1.4-4.7-1.8-9.5-2.3-14.4c3.2-0.4,6.4-0.6,9.5-0.6c0.3,0,0.6,0,0.8,0.2c0.1,0.2,0.2,0.4,0.2,0.6
		C327.3,298.5,327.3,300,328.2,300.9z"/>
	<path class="st5" d="M281.5,357.8c1.6,2.8,3.2,5.7,4.8,8.5c0.4,0.7,0.7,1.3,1,2c0.5,1.2,0.8,2.4,1.4,3.5c0.7,1.2,1.5,2.3,2.5,3.4
		l3.1,3.6c0.3,0.4,0.7,0.8,1.2,1.1c0.5,0.3,1.1,0.2,1.5-0.1c0.2-0.2,0.3-0.3,0.4-0.6c0.2-0.5,0.4-1.1,0.3-1.6c0-0.9-0.5-1.8-1.1-2.4
		c-0.4-0.4-1-0.7-1.2-1.2c-0.1-0.3-0.1-0.6-0.1-0.9c0.2-2.7,0.5-5.4,1.2-8c0.6-1.9,1.5-3.9,1.1-5.9c-0.8-0.3-1.9-0.4-2.4,0.3
		c-1,1.4-1,0.9-2.5,0.7c-1.5-0.2-2.9-0.3-4-1.5c-1.5-1.5-1.3-3.9-1.1-6.1c-1.5-0.1-3,0.5-4.4,1.2c-0.5,0.2-1,0.5-1.4,0.8
		c-0.3,0.1-0.5,0.3-0.7,0.5C280.5,355.8,281,356.9,281.5,357.8z"/>
	<path class="st5" d="M327.6,294c0.5,1.7,0.9,3.4,1.2,5.1c0.1,1,0.2,1.9,0.3,2.9c-3.3,0.8-6.6,0.8-10,0.8l-14,0.2
		c-0.3-1.9-0.4-3.8-0.4-5.7c0.2-3.1,1.4-6.2,1.2-9.3c3.8-0.7,7.7-1.1,11.6-1.3c0.7-0.1,1.4,0,2.1,0.2c0.6,0.2,1.2,0.7,1.8,1
		c1.4,0.7,3.4,0.3,4.6,1.4C327,290.3,327.2,292.7,327.6,294z"/>
	<path class="st6" d="M327.6,294c0.5,1.7,0.9,3.4,1.2,5.1c0.1,1,0.2,1.9,0.3,2.9c-3.3,0.8-6.6,0.8-10,0.8l-14,0.2
		c-0.3-1.9-0.4-3.8-0.4-5.7c0.2-3.1,1.4-6.2,1.2-9.3c3.8-0.7,7.7-1.1,11.6-1.3c0.7-0.1,1.4,0,2.1,0.2c0.6,0.2,1.2,0.7,1.8,1
		c1.4,0.7,3.4,0.3,4.6,1.4C327,290.3,327.2,292.7,327.6,294z"/>
	<path class="st9" d="M326.8,298.7c1.1,5-0.1,10.1-0.3,15.2c-0.2,3.6,0.1,7.3,0.2,10.9c0.1,1,0,2.1-0.1,3.1
		c-0.2,0.9-0.5,1.8-0.8,2.7l-1.3,3.3c-1.2,3.1-2.4,6.5-1.2,9.8c0.3,0.8,0.4,1.8,0.2,2.6c-1.8,7.5-0.2,15.5,0.1,23.2
		c0,0.8,0.1,1.5,0.4,2.2c0.6,1.4,2.2,2,3.1,3.3c1,1.5,0.6,3.7-0.5,5c-1.2,1.4-3,2.1-4.8,2.2c-2.3,0.2-4.5-0.4-6.8-0.7l-0.2-0.2
		c-0.3-1.5,0.6-3,0.8-4.6c0.1-0.9,0.2-1.9,0.2-2.8c0-0.8,0-1.7,0-2.5c-0.1-0.9-0.2-1.7-0.4-2.6l-1.9-10.5l-0.4-2.3l-1.7-9.4
		c-0.3-1.8,0.5-3.8,0.7-5.6c0.4-3.7,0.9-7.5,0.7-11.2c0-1-0.1-2.1-0.4-3.1c-0.2-0.9-0.4-1.9-0.4-2.8c0-1.2-0.5-2.3-0.9-3.4
		c-1.5-3.8-1.4-8-1.8-12.1c0-0.9-0.2-1.7-0.5-2.5c-0.5-1.2-1.4-2.2-2.2-3.3s-1.3-2.5-0.9-3.7c0.7-2,3.4-2.7,5.1-3.3
		c2.9-1,6-1.1,8.9-0.3C322.1,296,324.5,297.2,326.8,298.7z"/>
	<path class="st5" d="M314.1,385.9c0.1,0.2,0.3,0.4,0.5,0.5c0.2,0.1,0.5,0.1,0.7,0.1l11.1-0.2c1.4-0.1,2.7,0,4.1,0.2
		c1.1,0.2,2.1,0.5,3.2,0.5c2.5,0.2,4.9-1,7.2-2.1c0.4-0.1,0.7-0.4,0.9-0.7c0.1-0.3,0.1-0.7,0-1.1c-0.2-0.7-0.6-1.4-1.2-1.8
		c-0.1-0.1-0.1-0.1-0.2-0.1c-0.6-0.3-1.3-0.5-2-0.5c-2.6-0.3-5.3-0.8-7.2-2.6c-0.6-0.5-1-1.1-1.6-1.6c-1.1-1.1-2.3-2-3.6-2.9
		c-0.2-0.2-0.6-0.4-0.9-0.3c-0.2,0.1-0.4,0.2-0.5,0.3c-0.5,0.4-0.9,0.9-1.2,1.5c-0.2,0.6,0,1.3,0.6,1.7c0.5,0.2,0.9,0.1,1.3,0.3
		c-0.8,0.6-2,0.9-2.9,1.5c-0.9,0.7-1.9,1.2-2.9,1.6c-1.1,0.3-2.4,0.1-3.1-0.8c-0.4-0.5-0.9-1.2-1.4-0.9c-0.2,0.1-0.3,0.3-0.4,0.5
		c-0.5,1.3-0.9,2.6-1,3.9C313.3,383.9,313.6,385,314.1,385.9z"/>
	<path class="st5" d="M317.1,269.9c0.6,0,1.3,0.1,1.9,0.2c0.6,0.2,1.2,0.5,1.7,0.8l6.1,3.4c0.4,0.2,0.9,0.5,1.2,0.8
		c0.9,0.8,1.1,2.1,1.2,3.3c0.2,4.7-1.9,9.2-2.2,14c-0.1,2.1,0.1,4.2,0.8,6.2c0.2,0.5,0.3,1.1-0.1,1.5c-0.1,0.1-0.3,0.2-0.5,0.3
		c-1.9,0.7-4,0.9-6.1,1.1c-5,0.4-10.1,0.8-15.1,0.1c-0.3,0-0.5-0.1-0.7-0.2c-0.3-0.2-0.5-0.5-0.6-0.9c-0.6-1.5-1.2-3-1.8-4.5
		c-1-2.5-2-5.1-1.8-7.8c0.3-3.3,2.5-6.2,3.8-9.3c0.4-0.9,0.7-1.9,1.2-2.8c0.5-0.9,1.1-1.8,1.7-2.6c0.5-0.7,1-2.3,1.6-2.7
		c0.7-0.6,2.8-0.6,3.7-0.7C314.4,269.9,315.7,269.9,317.1,269.9z"/>
	<path class="st6" d="M281.5,357.8c1.6,2.8,3.2,5.7,4.8,8.5c0.4,0.7,0.7,1.3,1,2c0.5,1.2,0.8,2.4,1.4,3.5c0.7,1.2,1.5,2.3,2.5,3.4
		l3.1,3.6c0.3,0.4,0.7,0.8,1.2,1.1c0.5,0.3,1.1,0.2,1.5-0.1c0.2-0.2,0.3-0.3,0.4-0.6c0.2-0.5,0.4-1.1,0.3-1.6
		c-1.1-0.6-2.2-1.3-3-2.2c-0.7-0.8-1.3-1.7-1.8-2.7c-0.4-0.8-0.9-1.5-1.3-2.3c-2.2-3.9-4.4-7.8-6.6-11.7c-0.9-1.5-1.5-3.2-1.8-5
		c-0.5,0.2-1,0.5-1.4,0.8c-0.3,0.1-0.5,0.3-0.7,0.5C280.5,355.8,281,356.9,281.5,357.8z"/>
	<path class="st6" d="M314.1,385.9c0.1,0.2,0.3,0.4,0.5,0.5c0.2,0.1,0.5,0.1,0.7,0.1l11.1-0.2c1.4-0.1,2.7,0,4.1,0.2
		c1.1,0.2,2.1,0.5,3.2,0.5c2.5,0.2,4.9-1,7.2-2.1c0.4-0.1,0.7-0.4,0.9-0.7c0.1-0.3,0.1-0.7,0-1.1c-0.2-0.7-0.6-1.4-1.2-1.8
		c-0.2,0.1-0.3,0.2-0.5,0.3c-1.5,1.1-3.2,1.9-5,2.3c-1.8,0.3-3.6,0.5-5.4,0.4c-4.2,0-8.4,0-12.5-0.7c-0.8-0.2-2.5-0.9-3.6-0.7
		C313.3,383.9,313.6,385,314.1,385.9z"/>
	<path class="st10" d="M301.8,229.9c4,0.7,8.1,1.1,12.1,1.2c1,0,2.2-0.1,2.7-1c0.2-0.4,0.2-0.9,0.5-1.3c0.5-0.7,1.6-0.3,2.4,0.1
		c1.1,0.6,2.2,1.2,2.9,2.2c0.4,0.8,0.7,1.7,0.8,2.6c0.4,1.9,1,4,2.4,5.3c0.8,0.7,1.7,1.1,2.5,1.8c1.2,1.2,1.6,2.9,1.6,4.5
		s-0.4,3.3-0.7,4.9c-1.1,6-0.8,12.2,0.9,18.1c0.1,0.2,0.1,0.4,0.1,0.7c-0.1,0.4-0.6,0.6-1.1,0.6c-6.7,1.1-13.9,0.1-20.1,2.9
		c-0.5-1.3-1.8-2-2.4-3.2c-0.5-1-0.5-2.2-0.6-3.3c-0.4-3-2.3-5.5-3.4-8.3c-0.9-2.5-1.3-5.2-2.6-7.5c-0.5-0.8-1.1-1.5-1.5-2.4
		c-0.4-0.8-0.8-1.6-1.1-2.5c-0.6-1.5-1-3-1.3-4.6c-0.3-3.2,1.2-6.3,3-8.9C299.7,230.7,300.6,229.7,301.8,229.9z"/>
	<path class="st11" d="M321.3,241.3c0.8,0.2,1.2,0.9,1.6,1.6c0.2,0.4,0.4,0.9,0.6,1.4c0.2,0.8,0.3,1.6,0.3,2.5c0,0.5,0,1.1-0.2,1.6
		c-0.1,0.5-0.5,1-0.9,1.2"/>
	
		<ellipse transform="matrix(0.9688 -0.2477 0.2477 0.9688 -42.5585 83.2554)" class="st5" cx="309.6" cy="210.8" rx="9.2" ry="4.6"/>
	<path class="st6" d="M310.3,213.5c4.4-1.1,7.6-3.6,7.9-5.9c0.2,0.3,0.3,0.6,0.4,0.9c0.6,2.4-2.9,5.4-7.8,6.7
		c-4.9,1.3-9.4,0.3-10.1-2.1c-0.1-0.3-0.1-0.6-0.1-0.8C302,214,306,214.6,310.3,213.5z"/>
	<path class="st3" d="M302.3,296.9l-1.2,1.2l3.7,3.7l8.2-8.2l-1.2-1.2l-7.1,7.1L302.3,296.9z M312.3,298.5c0,3.6-2.9,6.6-6.6,6.6
		c-3.6,0-6.6-2.9-6.6-6.6c0-3.6,2.9-6.6,6.6-6.6c0.6,0,1.2,0.1,1.8,0.2l1.3-1.3c-1-0.4-2-0.6-3.1-0.6c-4.6,0-8.2,3.7-8.2,8.2
		s3.7,8.2,8.2,8.2s8.2-3.7,8.2-8.2l0,0L312.3,298.5z"/>
	<path class="st9" d="M305.4,243.7c-0.2-2.3-1-4.5-2.3-6.5c-0.5-0.8-1.2-1.5-2.1-2c-0.9-0.5-2-0.4-2.7,0.2c-0.5,0.5-0.8,1.1-1,1.8
		c-1.2,3-1.6,6.1-1.5,9.3c0,2.9,0,5.8,0.8,8.6c0.4,1.6,1.1,3.1,1.4,4.7c0.3,1.6,0.3,3.4-0.6,4.8c-0.7,1.1-1.2,2.3-1.5,3.5
		c-0.3,1.5-0.4,3-0.3,4.5l0.1,4.2c0.2,5.4,0.3,10.9-0.8,16.3c-0.5,2.4-1.7,4.7-1.5,7.2c0.1,0.9,0.4,1.8,0.8,2.6
		c0.5,1.2,1,2.5,2.2,3.1c0.6,0.3,1.2,0.4,1.8,0.4c0.8,0,1.5,0,2.3-0.1c0.5-0.1,1.1-0.4,0.9-0.8c-0.1-0.1-0.2-0.3-0.3-0.4
		c-1.2-1-1.9-2.4-1.9-3.9c0-2.2,1.4-4.2,1-6.4c-0.3-1.3-1.2-2.6-0.8-3.9c0.9-2.9,1-6,1.8-8.9l0.8-2.9c0.5-1.7,0.9-3.4,1.3-5.1
		c1-4.8,1.5-9.6,1.2-14.5c0-0.8,0.4-1.6,0.5-2.4c0.1-0.9,0-1.8,0-2.7C304.9,250.8,305.8,247.4,305.4,243.7z"/>
</g>
</svg>
