<?xml version="1.0" encoding="utf-8"?>
<!-- Generator: Adobe Illustrator 23.0.2, SVG Export Plug-In . SVG Version: 6.00 Build 0)  -->
<svg version="1.1" id="Layer_1" xmlns="http://www.w3.org/2000/svg" xmlns:xlink="http://www.w3.org/1999/xlink" x="0px" y="0px"
	 viewBox="0 0 595.3 413.9" style="enable-background:new 0 0 595.3 413.9;" xml:space="preserve">
<style type="text/css">
	.st0{fill:#F8FAFF;}
	.st1{opacity:0.3;fill:#ECAA46;enable-background:new    ;}
	.st2{fill:none;stroke:#3F3D56;stroke-width:0.4692;stroke-miterlimit:10;}
	.st3{fill:#ECAA46;}
	.st4{fill:#F2F2F2;}
	.st5{fill:#47465A;}
	.st6{opacity:0.1;enable-background:new    ;}
	.st7{fill:#7A799C;}
	.st8{fill:#9493B6;}
	.st9{fill:#FF6584;}
	.st10{fill:#FBBEBE;}
</style>
<rect x="0" y="0" class="st0" width="595.3" height="414"/>
<g>
	<rect x="355.7" y="40.5" class="st1" width="37.9" height="14.1"/>
	<rect x="418.7" y="16.4" class="st1" width="37.9" height="14.1"/>
	<rect x="421.4" y="60.1" class="st1" width="37.9" height="14.1"/>
	<rect x="300" y="76.3" class="st1" width="37.9" height="14.1"/>
	<rect x="288" y="134.3" class="st1" width="37.9" height="14.1"/>
	<rect x="345.3" y="133" class="st1" width="37.9" height="14.1"/>
	<polyline class="st2" points="418.7,23.4 393.6,47.2 421.4,67.1 	"/>
	<line class="st2" x1="355.7" y1="47.2" x2="319" y2="76.3"/>
	<polyline class="st2" points="307,134.3 319,90.4 364.2,133 	"/>
	<rect x="100" y="55" class="st1" width="37.9" height="14.1"/>
	<rect x="163" y="31" class="st1" width="37.9" height="14.1"/>
	<rect x="165.7" y="74.6" class="st1" width="37.9" height="14.1"/>
	<rect x="44.4" y="90.8" class="st1" width="37.9" height="14.1"/>
	<rect x="32.3" y="148.9" class="st1" width="37.9" height="14.1"/>
	<rect x="89.6" y="147.6" class="st1" width="37.9" height="14.1"/>
	<polyline class="st2" points="163,37.9 137.9,61.7 165.7,81.7 	"/>
	<line class="st2" x1="100" y1="61.7" x2="63.3" y2="90.8"/>
	<polyline class="st2" points="51.3,148.9 63.3,104.9 108.5,147.6 	"/>
	<line class="st2" x1="203.6" y1="81.7" x2="246.6" y2="81.7"/>
	<rect x="227.3" y="74.5" class="st3" width="44.6" height="14.1"/>
	<line class="st2" x1="271.9" y1="81.5" x2="300" y2="81.5"/>
	<line class="st2" x1="227.1" y1="81.5" x2="201" y2="37.9"/>
	<ellipse class="st4" cx="356.5" cy="351.5" rx="206.4" ry="46"/>
	<polygon class="st5" points="452.2,200.1 432.1,301 427.7,301 427.3,300.3 425.9,298.1 443.3,203.9 445.9,202.8 	"/>
	<polygon class="st6" points="445.9,202.8 427.3,300.3 425.9,298.1 443.3,203.9 	"/>
	<polygon class="st5" points="482.5,337.5 477.3,339.2 476.1,339.6 474.4,335.9 445.9,205.9 448.9,205.3 455.1,203.9 	"/>
	<polygon class="st6" points="477.3,339.2 476.1,339.6 474.4,335.9 445.9,205.9 448.9,205.3 	"/>
	<polygon class="st5" points="235.8,200.1 231.2,330.9 226,332 225.6,332.1 224.2,329.4 227.1,201.4 229.9,201 	"/>
	<polygon class="st6" points="229.9,201 226,332 225.6,332.1 224.2,329.4 227.1,201.4 	"/>
	<polygon class="st5" points="263,377.2 257.5,378.1 256.9,378.2 255.3,374.7 228.9,203.9 229.7,203.7 233.7,202.4 	"/>
	<polygon class="st6" points="257.5,378.1 256.9,378.2 255.3,374.7 228.9,203.9 229.7,203.7 	"/>
	<path class="st7" d="M377.5,189.6l20.2,25.7c1.4,1.8,3.6,2.7,5.9,2.5l82.7-9.7c3.3-0.4,5.8-3.2,5.8-6.5v-19.1L377.5,189.6z"/>
	<path class="st5" d="M445.4,193.7h5.6l0,0v8.1c0,1.1-0.9,2.1-2.1,2.1l0,0h-1.4c-1.1,0-2.1-0.9-2.1-2.1l0,0L445.4,193.7L445.4,193.7
		z"/>
	<path class="st7" d="M228.9,206l20.2,25.7c1.4,1.8,3.6,2.7,5.9,2.5l82.7-9.7c3.3-0.4,5.8-3.2,5.8-6.5v-19.1L228.9,206z"/>
	<path class="st5" d="M296.8,210.1h5.6l0,0v8.1c0,1.1-0.9,2.1-2.1,2.1l0,0h-1.4c-1.1,0-2.1-0.9-2.1-2.1l0,0V210.1L296.8,210.1z"/>
	<path class="st5" d="M252.1,219l246.1-28.7c2-0.2,3.4-2,3.2-4c-0.1-1.2-0.9-2.3-2-2.8l-44-22.1c-8.7-4.4-18.4-6.2-28.1-5.2
		l-218.6,22.3c-2.3,0.2-4,2.3-3.7,4.6c0.1,0.9,0.5,1.8,1.2,2.5l25.5,26.1C236.9,217.2,244.5,219.9,252.1,219z"/>
	<path class="st5" d="M525.2,186.5l-2.6-1.5c0,0-2.8,2.1-5.2,10.9s4.3,0.1,4.3,0.1l2.9-6L525.2,186.5z"/>
	<path class="st5" d="M497,267.2c0,0-2.7,12.7-3.9,16.2c-0.6,1.7-3.6,3.3-6.8,4.5c-2.9,1.1-5.9,1.9-8.9,2.3
		c-3.5,0.4-48.8-6.6-70.8-11.4c-14.8-3.2-16.7-6.9-16.4-9c0.1-0.6,0.4-1.2,0.8-1.6c0,0,21.8-14.7,29.5-21.8
		c7.7-7.1,22.8-1.5,39.4,1.5C476.5,250.8,497,267.2,497,267.2z"/>
	<path class="st5" d="M522.6,185c0,0,10.2,6.6-24.1,20.3c0,0-18.6,10.5-16.2,53.7c0.1,1.9,0.7,3.8,1.7,5.5
		c3.5,5.8,11.1,20.5-1.5,22.3v3.3c0,0,22.8-11.4,25.3-21.2c2.5-9.8,10.8-63.9,14.9-68.9C526.9,195.2,529.6,187.3,522.6,185z"/>
	<path class="st6" d="M486.3,287.9c-2.9,1.1-5.9,1.9-8.9,2.3c-3.5,0.4-48.8-6.6-70.8-11.4c-14.8-3.2-16.7-6.9-16.4-9
		c9.7,3.3,41.4,13.9,52.7,14.8c13.5,1,39.3,3.9,41.2,2C484.8,285.8,485.6,286.6,486.3,287.9z"/>
	<path class="st5" d="M367.8,374.3l19.7-90.1c0,0,3.5-9.5,11.6-9.1l7.5,3.7c0,0-12.5-2.9-15.1,6.6c-2.7,9.5-19.9,88.8-19.9,88.8
		H367.8z"/>
	<polygon class="st5" points="415.1,333.2 423,278.2 426.5,278.2 418.4,333.2 	"/>
	<path class="st5" d="M490.6,386.9l-7.5-85.9c0,0,0-7.3,3.7-10.8s15.8-13.6,15.8-13.6s3.1-0.7,5.6,6.3s19.7,77.6,19.7,77.6l-3.3,1.5
		l-21.4-81.3l-14.7,13.9c0,0-2.9,5.2-1.5,10s6.8,82.4,6.8,82.4H490.6z"/>
	<polygon class="st5" points="467.6,288.1 486.3,293.5 490.4,289.6 479.6,288.1 	"/>
	<path class="st7" d="M301.5,136.7l3,45.4l66.2-6.4l-2.6-44.4c-0.1-2.5-2.3-4.3-4.7-4.2c0,0-0.1,0-0.1,0l-57.7,4.9
		C303.2,132.1,301.4,134.2,301.5,136.7z"/>
	<polygon class="st7" points="393,188.7 327,195.9 324.5,196.2 305.2,183.8 305.2,181.1 370.8,175.1 	"/>
	<polygon class="st6" points="327,195.9 324.5,196.2 305.2,183.8 305.2,181.3 	"/>
	<polygon class="st8" points="306,136.2 308.3,176.7 366.4,171.3 364.3,131.9 	"/>
	<polygon class="st6" points="340.7,187.9 347.7,192.7 369.1,190.6 361.8,186 	"/>
	<polygon class="st8" points="311.8,182.1 320.8,188.7 377.8,183.3 367.7,176.7 	"/>
	<rect x="413.1" y="120.8" class="st9" width="42.1" height="42.1"/>
	<rect x="413.1" y="120.8" class="st6" width="42.1" height="42.1"/>
	<path class="st10" d="M427.6,140.3c0,0,5.9,16.1,0,19.1c-5.9,3,21.3,0,21.3,0l7.7-6.2c0,0-17.3-5-14.9-16.3
		C444.2,125.4,427.6,140.3,427.6,140.3z"/>
	<path class="st6" d="M427.6,140.3c0,0,5.9,16.1,0,19.1c-5.9,3,21.3,0,21.3,0l7.7-6.2c0,0-17.3-5-14.9-16.3
		C444.2,125.4,427.6,140.3,427.6,140.3z"/>
	<path class="st10" d="M378.8,301.7c0,0,22.3,31.4,18.6,40.1c-3.7,8.7-1.7,14.1-9.2,17.1c-7.4,3-9.4,8.4-3,8.2s14.9-2,16.1-4.2
		s4.2-12.9,8.4-14.4s12.1-7.2,6.4-14.1s-20-32.5-18.9-35.1C398.4,296.8,378.8,301.7,378.8,301.7z"/>
	<path class="st8" d="M425.4,239.6c0,0-46.1,3-57.9,14.1c-11.9,11.1,10.4,52.7,12.9,53.2c2.5,0.5,21.8-1.5,21-6.9
		c-0.7-5.4-13.9-27.7-13.9-27.7s17.1-6.2,26.5-7.7c9.4-1.5,19.8-8.4,19.8-8.4L425.4,239.6z"/>
	<path class="st10" d="M404.3,232.6c0,0,0.7,27.5,7.7,28.5c6.9,1,0-21,0-21l-0.2-8.4L404.3,232.6z"/>
	<path class="st3" d="M425.4,160.6c0,0-12.9-3.7-15.4,6.2c-2.5,9.9-3.2,44.1-3.2,44.1l-4.5,27.2c0,0,8.2-2.5,9.9-1.2l10.4-13.1
		L425.4,160.6z"/>
	<path class="st6" d="M425.4,160.6c0,0-12.9-3.7-15.4,6.2c-2.5,9.9-3.2,44.1-3.2,44.1l-4.5,27.2c0,0,8.2-2.5,9.9-1.2l10.4-13.1
		L425.4,160.6z"/>
	<path class="st10" d="M443,307c0,0,8.7,17,13.9,16.8c5.2-0.2,10.2-3.5,12.6,6.7c2.5,10.2-0.5,7.4,2.5,13.4c3,5.9,3.5,16.3-2.2,18.8
		c-5.7,2.5-10.9,2.7-11.1,0c-0.2-2.7,5-2.7-1-12.4c-5.9-9.7-18.6-27.2-23.8-29C428.6,319.5,443,307,443,307z"/>
	<path class="st8" d="M465.5,229.4c0,0,17.8,29.7,6.2,38.4c-11.6,8.7-46.3,25.3-46.3,25.3s18.6,12.6,19.6,16.8
		c1,4.2-8.9,15.6-12.4,15.8c-3.5,0.2-13.6-11.4-24.5-14.4c-10.9-3-17.6-24.3-5.7-32.2c11.9-7.9,23-21,23-21l-3.5-19.1L465.5,229.4z"
		/>
	<path class="st10" d="M450,130.3c0,10.5-10.8,19.2-21.3,19.2s-19.1-8.5-19.1-19.1c0-10.5,8.5-19.1,19.1-19.1
		C439.3,111.4,450,119.8,450,130.3z"/>
	<path class="st3" d="M433.6,157.8c0,0,17.1-7.4,17.1-8.4s9.9,2.2,12.1,4.2c2.2,2,3.5,1.7,5,5.7c1.5,4-7.4,40.9-7.4,40.9
		s5,28.5,7.7,31.2c2.7,2.7-22,6.7-22,6.7s-16.3,3-19.1,4.2c-2.7,1.2-7.7,3-6.7,0c1-3,5.2-5.2-2-8.9c0,0,2.5-12.1,0-17.6
		c-2.5-5.4-13.9-25.3-4.7-39.6c9.2-14.4,13.4-19.6,13.4-19.6S430.1,159.3,433.6,157.8z"/>
	<path class="st10" d="M439,225.4c0,0-19.3,8.6-25.1,9.4s-23.4,5.3-13.7,9.2c9.7,4,24.3-2,24.3-2l20.6-8.7L439,225.4z"/>
	<path class="st6" d="M459.8,157.1c0,0,7.1-3.4,9.1,8.7c2,12.1,8.9,50.5,0,56.2c-8.9,5.7-29.5,14.9-29.5,14.9s-12.1-8.2-6.4-11.1
		c5.7-3,19.3-11.4,21.3-14.4c2-3,4-36.1,0.5-41.6C451.3,164.3,459.8,157.1,459.8,157.1z"/>
	<path class="st3" d="M459.3,154.1c0,0,9.9-0.5,11.9,11.6c2,12.1,8.9,50.5,0,56.2c-8.9,5.7-29.5,14.9-29.5,14.9s-12.1-8.2-6.4-11.1
		c5.7-3,19.3-11.4,21.3-14.4c2-3-1.5-33.9-5-39.4C448.2,166.5,459.3,154.1,459.3,154.1z"/>
	<path class="st9" d="M424,98.4c-3,0.4-6.3,1.5-7.8,4.2c-0.7,1.3-1,2.8-1.6,4.2c-1.6,3.8-5.5,6.1-8.2,9.2c-3.6,4-5.4,10-3.3,15
		c0.8,1.9,2.2,3.6,3.2,5.4c2.9,5.1,3,11.2,3.1,17l0.2,11.5c0,1.8,0,3.5-0.5,5.2c-0.5,1.7-1.7,3.2-3.4,3.8c3.8,1.3,8-0.1,10.2-3.5
		c0.5,2.9-0.6,5.9-2.7,7.9c4.5-1.1,8.3-4.4,10.7-8.4c2.4-4,3.5-8.7,4-13.3c0.3-2.5,0.4-5-0.4-7.3c-0.5-1.6-1.5-3.1-2.4-4.6
		c-2.3-3.8-4.4-7.9-5.2-12.3c-0.8-4.4,0-9.3,2.9-12.7c2.2-2.7,5.6-4.2,9.1-4.2c3.5,0.1,6.7,2.1,8.4,5.1c0.7,1.2,1.6,2.9,2.9,2.5
		c0.2-0.1,0.5-0.2,0.7-0.4c1.5-0.7,3.2,0.7,3.9,2.2c2.1,4.8-1.8,9.9-2.2,15.1c-0.4,4.8,2.3,9.3,5.5,13c5.5,6.2,12.8,10.6,20.8,12.8
		c-1.2-0.3-2.2-1-3-1.9c3.3,0.1,6.5-0.1,9.7-0.8c-3.5-2.6-7-5.3-9.9-8.5c-2.9-3.3-5.2-7.2-5.8-11.5c-0.8-5.8,1.3-12.1-1.2-17.4
		c-2.3-4.9-7.8-7.6-9.9-12.5c-2.1-5-3.4-9.4-8.9-11.6C437,99.2,430.5,97.5,424,98.4z"/>
</g>
</svg>
