<?xml version="1.0" encoding="utf-8"?>
<!-- Generator: Adobe Illustrator 23.0.2, SVG Export Plug-In . SVG Version: 6.00 Build 0)  -->
<svg version="1.1" id="Layer_1" xmlns="http://www.w3.org/2000/svg" xmlns:xlink="http://www.w3.org/1999/xlink" x="0px" y="0px"
	 viewBox="0 0 595.3 413.9" style="enable-background:new 0 0 595.3 413.9;" xml:space="preserve">
<style type="text/css">
	.st0{fill:#F8FAFF;}
	.st1{fill:#F2F2F2;}
	.st2{fill:#3F3D56;}
	.st3{opacity:0.1;enable-background:new    ;}
	.st4{fill:none;stroke:#3F3D56;stroke-width:0.943;stroke-miterlimit:10;}
	.st5{opacity:0.1;}
	.st6{fill:#ECAA46;}
	.st7{fill:url(#SVGID_1_);}
	.st8{fill:#2F2E41;}
	.st9{fill:#FBBEBE;}
</style>
<rect x="0" y="0" class="st0" width="595.3" height="414"/>
<g>
	<path class="st1" d="M295.8,118.9c21.5-3.8,46.5-3.1,73.4,0c-5.5-31-5.7-61.3,0-91h-73.4C290.3,58,290.3,88.8,295.8,118.9z"/>
	<rect x="317.7" y="22.7" class="st2" width="25.5" height="8.4"/>
	<path class="st3" d="M238.6,298.5c21.5-3.8,46.5-3.1,73.4,0c-5.5-31-5.7-61.3,0-91h-73.4C233.2,237.6,233.2,268.4,238.6,298.5z"/>
	<path class="st1" d="M235.3,294.2c21.5-3.8,46.5-3.1,73.4,0c-5.5-31-5.7-61.3,0-91h-73.4C229.9,233.4,229.9,264.2,235.3,294.2z"/>
	<rect x="257.2" y="198.1" class="st2" width="25.5" height="8.4"/>
	<path class="st4" d="M172.2,145.8c0,0,28.5-80.5,91.9-81.2"/>
	<path class="st2" d="M269.8,64.7c-2.7,0.9-6.1,2.6-8.2,4.3l1.7-4.4l-1.5-4.5C263.9,61.8,267.2,63.6,269.8,64.7z"/>
	<path class="st4" d="M174.6,176.4c0,0-2.6,64.8,34.4,73.6"/>
	<path class="st2" d="M214.7,250.9c-2.8,0.5-6.4,1.7-8.7,3.1l2.3-4.2l-0.9-4.7C209.2,247.3,212.2,249.5,214.7,250.9z"/>
	<path class="st4" d="M182.1,155.2c0,0,200.2-33.4,234.6,7.9"/>
	<path class="st2" d="M419.8,167.9c-2.3-1.7-5.6-3.5-8.2-4.2l4.6-1.1l2.8-3.8C418.7,161.4,419.1,165.1,419.8,167.9z"/>
	<g class="st5">
		<ellipse class="st6" cx="297.6" cy="375.6" rx="233.1" ry="15.6"/>
	</g>
	<path class="st3" d="M502.4,259.6c-19,10.7-38,26.9-56.9,46.3c-15.3-27.5-34.3-51.2-57.4-70.5l56.9-46.3
		C468.1,209,487.6,232.9,502.4,259.6z"/>
	<path class="st1" d="M503.3,255.9c-19,10.7-38,26.9-56.9,46.3c-15.3-27.5-34.3-51.2-57.4-70.5l56.9-46.3
		C469.1,205.2,488.5,229.1,503.3,255.9z"/>
	
		<rect x="405.6" y="202.3" transform="matrix(0.7755 -0.6314 0.6314 0.7755 -36.4114 310.4955)" class="st2" width="25.5" height="8.4"/>
	
		<rect x="415.3" y="227.7" transform="matrix(0.7755 -0.6314 0.6314 0.7755 -47.3638 328.3115)" class="st6" width="45.3" height="6.1"/>
	
		<linearGradient id="SVGID_1_" gradientUnits="userSpaceOnUse" x1="576.9232" y1="409.2279" x2="576.9232" y2="564.0958" gradientTransform="matrix(0.9992 -4.030618e-02 -4.030618e-02 -0.9992 -91.8014 811.8363)">
		<stop  offset="0" style="stop-color:#808080;stop-opacity:0.25"/>
		<stop  offset="0.54" style="stop-color:#808080;stop-opacity:0.12"/>
		<stop  offset="1" style="stop-color:#808080;stop-opacity:0.1"/>
	</linearGradient>
	<path class="st7" d="M507,369.6c-0.3-0.4-0.6-0.8-1-1.1c-2.1-1.9-3-4.8-3.5-7.6c-0.5-2.8-0.7-5.7-1.5-8.4c-0.4-1.4-1-2.8-1.7-4.1
		c-0.5-1-1.1-3-1.9-3.7c-0.2-0.1-0.4-0.2-0.6-0.3c-0.4-0.9-1-1.6-1.7-2.3c-1.3-1.2-3-2.2-3.9-3.8c-0.2-0.5-0.6-1.1-0.9-1.6
		c-0.6-0.7-1.6-0.9-2.1-1.7c-0.7-0.9-0.6-2.2-0.5-3.4c0.1-1.2,0-2.6-1-3.2c-0.6-0.4-1.4-0.3-2-0.7c-0.9-0.5-1.3-1.7-1.3-2.7
		c0-1.1,0.3-2.1,0.4-3.1c0.3-3.4-2-6.7-1.1-10c0.3-1.2,1.1-2.3,1.6-3.5c0.2-0.4,0.3-0.8,0.5-1.2c1.5,0.6,3,1,4.6,1.1
		c-2.6-5.8-1.9-12.6-3.1-18.9l0.2-0.2c1.2-1.6,1.9-3.6,2-5.6c0-2.4-1.1-4.5-1.6-6.8c-0.4-1.9-0.4-4-0.9-5.9
		c-0.4-1.2-0.9-2.3-1.5-3.4c-0.6-1.1-1.2-2.2-1.9-3.2c-0.6-2-1.2-4-1.8-6c-0.8-2.8-1.7-5.7-3.4-8.1c-0.6-0.9-0.8-2.7-1.7-3.2
		c-0.8-0.4-1.6-0.5-2.5-0.4c-1.3-0.7-2.5-1.8-2.6-3.2c0-0.3,0-0.6,0.1-0.9h0.2c2.1-0.2,3.1-2,4.2-3.6c1.7-2.6,1.1-6.1,0-9.1
		c-0.3-0.9-0.8-1.8-1.4-2.5c-1.5-1.4-3.9-1.1-5.9-1.8c-0.6-0.3-1.3-0.5-1.9-0.7c-1.3-0.3-2.7,0.1-3.8,0.7c-1.2,0.6-2.3,1.4-3.5,1.8
		c-1.2,0.5-2.8,0.8-3.1,2.1c-0.1,0.4,0,0.9,0.1,1.3c0.3,0.8,0.8,1.5,1.5,2.1c-2,4.2-0.3,9.2,3.9,11.2c0.4,0.2,0.8,0.4,1.2,0.5
		c0.4,0.6,0.7,1.2,1,1.8c0.5,1.1,1,2.3,0.8,3.4c-0.3,0.4-0.7,0.7-0.9,1.2c-1.4,1.9-2.1,4.1-2.8,6.3c-1,2.8-1.7,5.7-2.3,8.6
		c-1.2,2.4-2.6,4.8-3.4,7.4c-1.5,0-3-0.2-4.4-0.6l-4-0.9c-1.4-0.3-2.8-0.7-3.9-1.6c-0.6-0.5-1-1.1-1.6-1.6c-0.6-0.5-1.8-1-2.4-0.6
		c-0.1,0.1-0.2,0.2-0.3,0.2c-0.6-1.2-2,1.8-2.7,0.7c-1-1.6-4.4,0.3-6.2,0c-1.1-0.2-2.3,0.1-3.2,0.7c-1.1,0.8-1.7,2.4-0.9,3.4
		c0.2,0.2,0.4,0.5,0.7,0.7c0.5,0.6,1,1.3,1.5,2c1.5,2.1,4.8,0.2,7.3,0.7c-0.1,0.2,1.8-3.8,1.7-3.6c-0.3,1-1,2.2-0.9,3.2l17.7,6.1
		c1.1,0.5,2.3,0.7,3.6,0.8c0.5,0,1-0.1,1.4-0.2v0.9v0c0,6.2-0.9,12.4-1.1,18.6c0,1.1,0,2.4,0.7,3.2c0.8,1,2.2,1.2,3.5,0.9
		c0.3,0,0.6-0.1,0.9-0.2c0.4,1.6,0.7,3.2,0.9,4.8l1.2,8.4c0.2,0.9,0.2,1.7,0.2,2.6c-0.1,2-1.2,3.7-1.9,5.6s-1.2,4-0.2,5.7
		c0.3,0.5,0.7,1,1,1.5c0.4,0.8,0.5,1.8,0.5,2.7c0.1,2.5,0.1,5.1,0.2,7.6c-0.2,0-0.4,0-0.6,0.1c-1,0.8-0.9,4.4-0.9,5.5
		c-0.1,1.9,0,3.8-0.1,5.7c-0.1,2.6-0.6,5.1-1.3,7.6c-0.2,0.8-0.5,1.6-1.1,2.2c-0.6,0.5-1.2,0.8-1.9,1c-2.3,0.7-4.8,1.1-7.3,1
		c-1,0-2-0.1-3,0.3c-0.9,0.4-1.7,1.4-1.3,2.4c0.3,0.8,1.2,1.2,1.9,1.5c1.8,0.6,3.5,1.4,5.2,2.4c0.6,0.4,1.3,0.8,2,1.1
		c0.7,0.2,1.4,0.4,2.1,0.5l8.4,1.4c1.7,0.3,3.8,0.5,4.9-0.9c0.6-0.8,0.7-1.8,0.6-2.8c0-1.9-0.4-3.8-0.2-5.7c0.2-1.1,0.5-2.2,0.9-3.3
		l2.5-7.3c0.8-2.5,1.7-5,2-7.6c0.1-0.9,0.1-2-0.6-2.6c-0.2-0.1-0.4-0.3-0.6-0.3c0-2.3-0.3-4.5-0.2-6.8c0-0.6,0.1-1.1,0.1-1.7
		c0.4,0.4,0.8,0.9,1.2,1.4c0.8,1.3,1.1,2.9,2.3,3.8c1,0.7,2.6,0.7,3.3,1.7c0.2,0.4,0.4,0.8,0.5,1.3c0.4,1.1,1.1,2.1,1.9,3
		c0.3,1,0.7,2,1.2,3l2.1,4.4c0.7,1.6,1.5,3.1,2.4,4.6c0.7,0.9,1.2,2,1.6,3c0.7,2.3-0.4,4.9-2.1,6.6c-1.7,1.7-4,2.7-6.2,3.6
		c-0.2,0.1-0.5,0.2-0.6,0.4c-0.2,0.2-0.3,0.5-0.3,0.8c0,1.1,0.9,2,1.9,2.4c1.1,0.3,2.2,0.3,3.2,0.1c6-0.7,12-2.2,17.4-5.1
		c0.8-0.4,1.5-0.9,2.1-1.6C507.3,371.4,507.4,370.4,507,369.6z"/>
	<path class="st8" d="M481.6,263.9c1,1.5,1.9,3.1,2.8,4.7c0.6,1.1,1.1,2.2,1.5,3.4c0.5,1.9,0.5,3.9,0.9,5.8c0.5,2.3,1.6,4.4,1.6,6.7
		c-0.1,2-0.8,3.9-2,5.5c-1.2,1.6-2.6,3-4.2,4.3c-3.6-9.2-5.5-19-5.9-28.9c0-1.4-0.1-2.8,0.4-4.1c0.3-0.8,1.8-3,2.7-2.1
		c0.3,0.3,0.4,1.7,0.6,2.2C480.6,262.4,481.1,263.2,481.6,263.9z"/>
	<path class="st3" d="M481.6,263.9c1,1.5,1.9,3.1,2.8,4.7c0.6,1.1,1.1,2.2,1.5,3.4c0.5,1.9,0.5,3.9,0.9,5.8c0.5,2.3,1.6,4.4,1.6,6.7
		c-0.1,2-0.8,3.9-2,5.5c-1.2,1.6-2.6,3-4.2,4.3c-3.6-9.2-5.5-19-5.9-28.9c0-1.4-0.1-2.8,0.4-4.1c0.3-0.8,1.8-3,2.7-2.1
		c0.3,0.3,0.4,1.7,0.6,2.2C480.6,262.4,481.1,263.2,481.6,263.9z"/>
	<path class="st9" d="M431,269c-1.8-0.3-3.9-0.2-5.3,1c-0.9,0.7-1.4,1.8-1.5,2.9c-0.1,1.3,0.6,2.9,1.9,3c0.3,0,0.6,0,0.9-0.1
		c0.8,0,1.7,0.1,2.5,0.2c3.3,0.3,6.5-1,8.6-3.5c1.1-1.4-0.4-2-1.7-2.3C434.6,269.9,432.8,269.3,431,269z"/>
	<path class="st2" d="M462.5,311.6l1.2,8.3c0.1,0.9,0.2,1.7,0.2,2.6c-0.1,2-1.2,3.7-1.9,5.5s-1.2,4-0.2,5.7c0.3,0.5,0.7,1,1,1.5
		c0.4,0.8,0.5,1.7,0.5,2.7l0.3,11.8c3.6,0.2,7.3,0.2,10.9-0.1c0.1,0,0.3,0,0.4-0.1c0.1-0.1,0.1-0.3,0.1-0.4c0.2-2.8-0.3-5.5-0.2-8.3
		c0.1-1,0.2-2,0.2-3c0.1-4.1-2-8.1-1.4-12.2c0.2-1,0.4-2,0.8-3c1.9-7,1.5-14.5,1.1-21.8c0-0.1,0-0.2-0.1-0.3
		c-0.1-0.1-0.2-0.1-0.3-0.1c-4.2-1.3-8.7-0.4-12.2,2.3c-0.5,0.4-1.8,0.8-2.1,1.3c-0.5,0.7,0.1,1.4,0.4,2.1
		C461.9,307.8,462.3,309.7,462.5,311.6z"/>
	<path class="st3" d="M462.5,311.6l1.2,8.3c0.1,0.9,0.2,1.7,0.2,2.6c-0.1,2-1.2,3.7-1.9,5.5s-1.2,4-0.2,5.7c0.3,0.5,0.7,1,1,1.5
		c0.4,0.8,0.5,1.7,0.5,2.7l0.3,11.8c3.6,0.2,7.3,0.2,10.9-0.1c0.1,0,0.3,0,0.4-0.1c0.1-0.1,0.1-0.3,0.1-0.4c0.2-2.8-0.3-5.5-0.2-8.3
		c0.1-1,0.2-2,0.2-3c0.1-4.1-2-8.1-1.4-12.2c0.2-1,0.4-2,0.8-3c1.9-7,1.5-14.5,1.1-21.8c0-0.1,0-0.2-0.1-0.3
		c-0.1-0.1-0.2-0.1-0.3-0.1c-4.2-1.3-8.7-0.4-12.2,2.3c-0.5,0.4-1.8,0.8-2.1,1.3c-0.5,0.7,0.1,1.4,0.4,2.1
		C461.9,307.8,462.3,309.7,462.5,311.6z"/>
	<path class="st2" d="M484.3,309.1c-0.6,1.1-1.3,2.2-1.6,3.4c-0.9,3.2,1.4,6.6,1.1,9.9c-0.1,1-0.4,2.1-0.4,3.1s0.4,2.2,1.3,2.7
		c0.6,0.3,1.4,0.3,2,0.7c1,0.6,1.1,2,1,3.1c-0.1,1.2-0.3,2.5,0.5,3.4c0.6,0.7,1.5,1,2.1,1.6c0.4,0.5,0.7,1,0.9,1.5
		c0.9,1.6,2.5,2.5,3.9,3.7c1.3,1.2,2.5,3.1,1.9,4.8c-0.4,1.3-1.7,2-2.9,2.6c-2.2,1.1-4.5,1.9-6.9,2.4c-0.3,0.1-0.5,0.1-0.8,0
		c-0.3-0.1-0.5-0.3-0.7-0.5c-1.4-1.4-2.8-2.8-3.5-4.6c-0.1-0.4-0.3-0.9-0.5-1.3c-0.7-1-2.3-1-3.3-1.7c-1.2-0.8-1.5-2.5-2.3-3.7
		c-0.8-1.2-2-2-2.8-3.1c-1.4-1.8-1.8-4.3-2.8-6.4c-0.5-0.9-0.9-1.7-1.3-2.6c-0.4-1.1-0.6-2.3-0.6-3.4c-0.7-5.5-2.4-11.1-1.3-16.5
		c0.2-1.2,0.6-2.4,0.7-3.6c0.3-2.1-0.2-4.3,0.2-6.5c0-0.5,0.3-1,0.7-1.4c0.3-0.1,0.5-0.2,0.8-0.2c2.8-0.1,5.6-0.1,8.4,0.2
		c1.4,0.1,3,0.4,3.8,1.6c0.7,1,0.7,2.3,0.9,3.5c0.3,1.5,1,2.3,1.8,3.4S484.9,307.9,484.3,309.1z"/>
	<path class="st8" d="M473.5,347.4c0.7,0,1.6,0,2.1,0.4c0.7,0.6,0.7,1.7,0.6,2.6c-0.3,2.6-1.2,5.1-2,7.5l-2.5,7.4
		c-0.4,1.1-0.7,2.1-0.9,3.2c-0.2,1.9,0.1,3.8,0.2,5.7c0,0.9-0.1,2-0.7,2.7c-1.1,1.4-3.1,1.2-4.9,0.9l-8.3-1.4
		c-0.7-0.1-1.4-0.3-2.1-0.5c-0.7-0.3-1.4-0.7-2-1.1c-1.7-0.9-3.4-1.7-5.2-2.4c-0.8-0.3-1.7-0.7-1.9-1.5c-0.3-0.9,0.4-2,1.3-2.4
		c0.9-0.4,2-0.3,3-0.2c2.5,0.1,4.9-0.3,7.3-1c0.7-0.2,1.4-0.5,1.9-1c0.5-0.6,0.9-1.4,1.1-2.2c0.7-2.5,1.1-5,1.3-7.5
		c0.1-1.9,0-3.8,0.1-5.7c0-1.1-0.1-4.7,0.9-5.5c0.7-0.6,3.8,1,4.8,1.2C469.6,347.3,471.5,347.5,473.5,347.4z"/>
	<path class="st8" d="M501,352.7c0.8,2.7,0.9,5.6,1.5,8.3c0.5,2.8,1.5,5.6,3.5,7.5c0.4,0.3,0.7,0.7,1,1.1c0.4,0.8,0.2,1.8-0.4,2.5
		c-0.6,0.7-1.3,1.2-2.1,1.6c-5.3,2.9-11.3,4.4-17.4,5.1c-1.1,0.2-2.2,0.2-3.2-0.1c-1-0.3-1.9-1.3-1.9-2.4c0-0.3,0.1-0.6,0.3-0.8
		c0.2-0.2,0.4-0.3,0.6-0.4c2.2-0.9,4.5-1.9,6.2-3.6c1.7-1.7,2.8-4.2,2.1-6.5c-0.4-1.1-0.9-2.1-1.6-3c-0.9-1.5-1.6-3-2.4-4.6
		l-2.1-4.4c-0.6-1.3-1.2-2.6-1.3-4c2.6,0.1,5.2-0.3,7.6-1.2c1.1-0.5,2.2-1.1,3.1-1.9c0.8-0.7,1.5-1.9,2.6-1c0.9,0.7,1.4,2.7,1.9,3.7
		C500,349.9,500.6,351.3,501,352.7z"/>
	<path class="st9" d="M470.6,244.6c0.2,1.8,2,3,3.6,3.7l-10.6,3.4c0.7-1.3,0.1-2.9-0.5-4.2c-0.6-1.1-1.2-2.1-1.9-3
		c-0.1-0.2-0.2-0.3-0.1-0.5c0.1-0.1,0.2-0.2,0.3-0.2c2.2-1,4.4-2,6.8-2.3c0.7-0.1,2-0.4,2.5,0.3S470.5,243.8,470.6,244.6z"/>
	<path class="st3" d="M470.6,244.6c0.2,1.8,2,3,3.6,3.7l-10.6,3.4c0.7-1.3,0.1-2.9-0.5-4.2c-0.6-1.1-1.2-2.1-1.9-3
		c-0.1-0.2-0.2-0.3-0.1-0.5c0.1-0.1,0.2-0.2,0.3-0.2c2.2-1,4.4-2,6.8-2.3c0.7-0.1,2-0.4,2.5,0.3S470.5,243.8,470.6,244.6z"/>
	<circle class="st9" cx="464.4" cy="237.8" r="8.3"/>
	<path class="st8" d="M457.3,306.1c0.8,0.9,2.2,1.2,3.5,0.9c2.9-0.5,5.3-2.6,8.1-3.4c3.5-0.9,7.2,0.3,10.4,1.8
		c3.3,1.5,6.6,3.3,10.1,3.6c-3.2-7.2-1.4-16-4.5-23.3c-0.8-1.8-1.8-3.5-2-5.4c-0.2-2.4,1-4.7,1.2-7.1c0.2-2.1-0.5-4.2-1.1-6.3
		c-0.8-2.5-1.5-5-2.3-7.5c-0.8-2.8-1.7-5.6-3.4-8c-0.6-0.9-0.8-2.7-1.7-3.2c-2-1.2-5.1,0.3-7.3,0.4c-2.2,0.1-4.2,1.6-5.5,3.4
		c-1.4,1.9-2.1,4.1-2.8,6.3c-1.1,3.3-2,6.6-2.5,10c-0.1,0.5-0.1,1-0.2,1.5c-0.5,4.8,0.2,9.7,0.3,14.6v0c0,6.2-0.9,12.3-1.1,18.5
		C456.5,304.1,456.5,305.3,457.3,306.1z"/>
	<path class="st3" d="M457.7,284.4c1.6-0.4,3.1-1.5,4.4-2.6c1.1-1,2.1-2.1,2.9-3.3c1-1.6,1.9-3.4,2.5-5.3c1.7-4.9,2.9-10,3.3-15.2
		c0.1-1.4,0.2-2.9-0.7-4.1c-1-1.3-2.7-1.7-4.1-1c-1.1,0.5-1.8,1.6-2.5,2.7c-1.3,2.1-2.7,4.2-3.5,6.5c-0.4,1-0.7,2.1-1,3.1
		c-0.4,1-0.8,2-1.3,3c-0.1,0.5-0.1,1-0.2,1.5C457,274.7,457.6,279.6,457.7,284.4z"/>
	<path class="st8" d="M470,253.1c0.8,1.1,0.8,2.7,0.7,4.1c-0.4,5.2-1.6,10.3-3.3,15.2c-0.6,1.9-1.4,3.6-2.5,5.3
		c-0.8,1.2-1.8,2.3-2.9,3.3c-1.6,1.5-3.6,2.8-5.7,2.8c-1.2-0.1-2.4-0.3-3.6-0.8l-17.7-6c-0.2-1,0.5-2.2,0.9-3.2l0.9-2.8
		c0.3-0.8,0.6-1.6,1.3-2c0.7-0.4,1.8,0.2,2.4,0.6c0.6,0.5,1,1.1,1.6,1.6c1.1,0.9,2.5,1.2,3.9,1.6l4,0.9c1.4,0.4,2.9,0.6,4.4,0.6
		c1.1-3.4,3.2-6.4,4.4-9.7c0.4-1,0.6-2.1,1-3.1c0.8-2.3,2.2-4.4,3.5-6.5c0.7-1.1,1.4-2.1,2.5-2.7C467.3,251.4,469,251.9,470,253.1z"
		/>
	<path class="st8" d="M467.1,239.7c-0.1-0.5-0.2-1.1-0.5-1.6c-0.3-0.5-0.9-0.7-1.4-0.6c-0.8,0.3-1.1,1.5-2,1.6c-0.6,0-1-0.6-1.2-1.1
		c-0.2-0.6-0.3-1.2-0.7-1.6c-0.3-0.2-0.7-0.4-1-0.5c-2-0.6-4.1-1.8-4.8-3.8c-0.2-0.4-0.2-0.9-0.1-1.3c0.3-1.3,1.9-1.6,3.1-2.1
		c1.2-0.5,2.4-1.2,3.5-1.8c1.2-0.6,2.5-1,3.8-0.7c0.7,0.2,1.3,0.5,1.9,0.7c2,0.7,4.3,0.4,5.9,1.8c0.7,0.7,1.1,1.5,1.4,2.5
		c1.1,2.9,1.7,6.4,0,9c-1.1,1.6-2.1,3.4-4.2,3.6C468.4,243.9,467.5,241.7,467.1,239.7z"/>
	<g class="st5">
		<path d="M463.4,236.9c-0.2-0.6-0.3-1.2-0.7-1.6c-0.3-0.2-0.7-0.4-1-0.5c-2-0.6-4.1-1.8-4.8-3.8c-0.2-0.4-0.2-0.9-0.1-1.3
			c0-0.2,0.1-0.4,0.2-0.6c-0.8,0.3-1.4,0.8-1.6,1.6c-0.1,0.4,0,0.9,0.1,1.3c0.7,2,2.7,3.2,4.8,3.8c0.4,0.1,0.7,0.2,1,0.5
			c0.4,0.4,0.5,1,0.7,1.6c0.2,0.6,0.6,1.2,1.2,1.1c0.6,0,0.9-0.6,1.2-1C463.9,238,463.6,237.5,463.4,236.9z"/>
		<path d="M472.2,242.7c-2.4,0.2-3.4-2-3.8-4c-0.1-0.5-0.2-1.1-0.5-1.6c-0.3-0.5-0.9-0.7-1.4-0.6c-0.4,0.1-0.7,0.6-1,0.9
			c0.4,0,0.8,0.3,1.1,0.7c0.3,0.5,0.4,1,0.5,1.6c0.4,2,1.3,4.2,3.8,4c1-0.1,1.8-0.6,2.5-1.3C473,242.5,472.6,242.6,472.2,242.7z"/>
	</g>
	<path class="st1" d="M184.2,203.2c-21.5-3.8-46.5-3.1-73.4,0c5.5-31,5.7-61.3,0-91h73.4C189.6,142.3,189.6,173.1,184.2,203.2z"/>
	<rect x="136.8" y="107.1" class="st2" width="25.5" height="8.4"/>
	<rect x="247.4" y="227.1" class="st6" width="45.3" height="6.1"/>
	<rect x="247.4" y="239.8" class="st6" width="45.3" height="6.1"/>
	<rect x="307.8" y="43.2" class="st6" width="45.3" height="6.1"/>
	<rect x="307.8" y="55.9" class="st6" width="45.3" height="6.1"/>
	<rect x="126.7" y="129" class="st6" width="45.3" height="6.1"/>
	<path class="st6" d="M124.6,362.8l9-5.3c-1.2-2.1-2.8-4-4.6-5.5l-17,5.3l13.3-7.8c-10.5-5.8-23.7-1.9-29.4,8.6
		c-1.8,3.2-2.7,6.8-2.7,10.4c0,12,9.7,12.4,21.7,12.4s21.7-0.4,21.7-12.4c0-3-0.6-6-1.9-8.8L124.6,362.8z"/>
	<path class="st3" d="M126.9,374.5c-1-1-2-1.8-3.2-2.5c-1.6-1.1-3.3-2.2-5.3-2.6c-1.7-0.3-3.4,0-5.2-0.1c-3-0.2-5.8-1.5-7.9-3.6
		c-1.2-1.3-2.2-2.8-3.7-3.8c-1.6-1.1-3.6-1.3-5.5-1c-0.6,0.1-1.1,0.2-1.6,0.3c-0.9,2.4-1.3,4.8-1.3,7.4c0,12,9.7,12.4,21.7,12.4
		c5.8,0,11.1-0.1,15-1.6l-0.6-1.2C128.6,376.8,127.9,375.6,126.9,374.5z"/>
	<path class="st6" d="M346.3,345.5l-12-7c1.6-2.8,3.7-5.2,6.1-7.3l22.6,7l-17.7-10.4c13.9-7.6,31.4-2.5,39,11.4
		c2.3,4.2,3.5,9,3.5,13.8c0,15.9-12.9,16.4-28.8,16.4s-28.8-0.5-28.8-16.4c0-4,0.8-8,2.5-11.7L346.3,345.5z"/>
	<path class="st3" d="M343.3,361c1.3-1.3,2.7-2.4,4.2-3.3c2.2-1.4,4.4-2.9,7-3.4c2.2-0.4,4.6-0.1,6.9-0.2c4-0.2,7.7-2,10.5-4.8
		c1.6-1.7,2.9-3.8,4.9-5.1c2.1-1.4,4.8-1.7,7.3-1.3c0.7,0.1,1.5,0.3,2.2,0.4c1.1,3.1,1.7,6.4,1.7,9.8c0,15.9-12.9,16.4-28.8,16.4
		c-7.7,0-14.7-0.1-19.9-2.1l0.9-1.6C341,364,342,362.4,343.3,361z"/>
</g>
</svg>
