<?xml version="1.0" encoding="utf-8"?>
<!-- Generator: Adobe Illustrator 23.0.2, SVG Export Plug-In . SVG Version: 6.00 Build 0)  -->
<svg version="1.1" id="Layer_1" xmlns="http://www.w3.org/2000/svg" xmlns:xlink="http://www.w3.org/1999/xlink" x="0px" y="0px"
	 viewBox="0 0 595.3 413.9" style="enable-background:new 0 0 595.3 413.9;" xml:space="preserve">
<style type="text/css">
	.st0{fill:#F8FAFF;}
	.st1{opacity:0.2;fill:#ECAA46;enable-background:new    ;}
	.st2{fill:#F5F5F5;}
	.st3{fill:#ECAA46;}
	.st4{fill:none;stroke:#535461;stroke-width:1.0831;stroke-miterlimit:10;}
	.st5{opacity:0.2;fill:#F5F5F5;enable-background:new    ;}
	.st6{fill:url(#SVGID_1_);}
	.st7{fill:#535461;}
	.st8{fill:#FFFFFF;}
	.st9{fill:url(#SVGID_2_);}
	.st10{fill:url(#SVGID_3_);}
	.st11{fill:url(#SVGID_4_);}
	.st12{fill:#F7C4A7;}
	.st13{opacity:5.000000e-02;enable-background:new    ;}
	.st14{fill:#575988;}
	.st15{opacity:0.1;enable-background:new    ;}
	.st16{fill:#F3B5B7;}
	.st17{fill:#DDDBE2;}
	.st18{fill:#FC6681;}
</style>
<rect x="0" y="0" class="st0" width="595.3" height="414"/>
<g>
	<path class="st1" d="M99.1,41.3c-4.4-0.1-8.8,0-12.9,1.3C75,45.9,69.8,57.1,71.5,66.8s8.8,18.1,16.1,25.8s15.3,15.3,19.3,24.5
		c2,4.6,2.9,9.7,0.9,14.3c-3.1,7.1-12.6,11-21.7,11.9c-9.1,0.8-18.2-0.8-27.3-1.3c-3.8-0.2-7.8-0.2-11.4,0.8
		c-4,1.1-7.3,3.4-10.3,5.8c-11.8,9.4-21.3,22.3-19.8,35.7c1.7,15.3,17.2,27.4,34.1,33.9c5.6,2.2,11.5,3.9,16.5,7
		c13,8.1,15.9,23.2,14.6,36.6c-1.3,13.4-5.7,26.8-3.2,40c2.9,15.4,15.7,29.4,32.9,35.9c15.4,5.8,34.6,5.4,48.2-2.8
		c6.6-4,11.7-9.5,16-15.3c6.5-8.5,11.9-17.8,15.9-27.6c1.9-4.6,3.7-9.5,8.1-12.7c2.7-2,6.2-3.1,9.7-3.9c10.5-2.6,21.5-3.3,32-5.6
		c10.6-2.3,21.2-6.6,26.9-14.2c8.1-10.8,4.3-24.7,4.4-37.4c0.1-29.1,21.2-55.1,29-83.4c2.5-9.3,3.5-19.5-2.2-27.8
		c-3.9-5.6-10.4-9.7-17.2-12.8c-15.1-6.9-32.2-9.9-49-12.9c-23.4-4.1-51.8-4.7-70-18.1C146.7,50.4,122.8,41.3,99.1,41.3z"/>
	<ellipse class="st2" cx="326.3" cy="305.2" rx="251.8" ry="67.4"/>
	<path class="st3" d="M535.5,142.4c0,0-19.4,19.4-8.4,48.2s-18.8,76.7-18.8,76.7s0.3,0,0.9-0.2c39.9-7,59.7-52.6,37.5-86.5
		C538.4,168.1,531.7,153.3,535.5,142.4z"/>
	<path class="st4" d="M535.5,142.4c0,0-11,23.8,0,43.2c11,19.4,1.9,73.9-27.2,81.7"/>
	<path class="st3" d="M570,220.9c0,0-22.1-3.5-24.2,16.3s-42.6,22.6-42.6,22.6l0.8,0.5c33.5,22,65.5,14,60.7-15.2
		C562.9,234.3,563.1,223.4,570,220.9z"/>
	<path class="st5" d="M570,220.9c0,0-22.1-3.5-24.2,16.3s-42.6,22.6-42.6,22.6l0.8,0.5c33.5,22,65.5,14,60.7-15.2
		C562.9,234.3,563.1,223.4,570,220.9z"/>
	<path class="st4" d="M570,220.9c0,0-17.2,3.8-15.8,19.4c1.4,15.6-25.5,34.4-51,19.5"/>
	
		<linearGradient id="SVGID_1_" gradientUnits="userSpaceOnUse" x1="420.2813" y1="406.684" x2="420.2813" y2="604.7386" gradientTransform="matrix(1 0 0 -1 -82 698.1102)">
		<stop  offset="0" style="stop-color:#808080;stop-opacity:0.25"/>
		<stop  offset="0.54" style="stop-color:#808080;stop-opacity:0.12"/>
		<stop  offset="1" style="stop-color:#808080;stop-opacity:0.1"/>
	</linearGradient>
	<path class="st6" d="M518.8,268.6H484c0.8-1.6,1.2-3.4,1.2-5.2V105c0-6.4-5.2-11.6-11.6-11.6l0,0H204.2c-6.4,0-11.7,5.2-11.7,11.6
		c0,0,0,0,0,0v158.4c0,1.8,0.4,3.6,1.2,5.2h-36c-1.7,0-3.1,1.4-3.1,3.1l0,0v2.5c0,9.5,7.7,17.2,17.2,17.2h332.7
		c9.5,0,17.2-7.7,17.2-17.2l0,0v-2.5C521.9,270,520.5,268.6,518.8,268.6z M304.4,278.5l-3-3.4h74l-3.3,3.4L304.4,278.5z"/>
	<path class="st7" d="M208.5,95.6h260.8c7,0,12.6,5.6,12.6,12.6v152.4c0,7-5.6,12.6-12.6,12.6H208.5c-7,0-12.6-5.6-12.6-12.6V108.2
		C195.9,101.3,201.5,95.6,208.5,95.6z"/>
	<rect x="201.9" y="121.5" class="st8" width="273.4" height="145.1"/>
	<circle class="st8" cx="338.6" cy="108.9" r="2.4"/>
	<path class="st7" d="M380.8,266.9l-9.4,9.6h-66.2l-8.5-9.6H161.9c-1.7,0-3,1.3-3,3v2.4c0,9.3,7.5,16.8,16.8,16.8h325.2
		c9.3,0,16.8-7.5,16.8-16.8v-2.4c0-1.7-1.3-3-3-3L380.8,266.9z"/>
	
		<linearGradient id="SVGID_2_" gradientUnits="userSpaceOnUse" x1="311.3734" y1="390.6487" x2="311.3734" y2="571.5038" gradientTransform="matrix(1 0 0 -1 -82 698.1102)">
		<stop  offset="0" style="stop-color:#808080;stop-opacity:0.25"/>
		<stop  offset="0.54" style="stop-color:#808080;stop-opacity:0.12"/>
		<stop  offset="1" style="stop-color:#808080;stop-opacity:0.1"/>
	</linearGradient>
	<path class="st9" d="M287,126.6H171.7c-5.8,0-10.6,4.7-10.6,10.5v159.8c0,5.8,4.7,10.6,10.6,10.5H287c5.8,0,10.6-4.7,10.6-10.5
		V137.2C297.6,131.3,292.9,126.6,287,126.6z"/>
	<path class="st7" d="M173.6,128.8h111.6c6,0,10.8,4.8,10.8,10.8V295c0,6-4.8,10.8-10.8,10.8H173.6c-6,0-10.8-4.8-10.8-10.8V139.6
		C162.8,133.6,167.6,128.8,173.6,128.8z"/>
	<rect x="169.5" y="145.5" class="st8" width="119.7" height="143.6"/>
	<circle class="st8" cx="228.8" cy="136.9" r="1.6"/>
	<circle class="st8" cx="228.8" cy="297.2" r="4.9"/>
	
		<linearGradient id="SVGID_3_" gradientUnits="userSpaceOnUse" x1="251.5324" y1="376.0053" x2="251.5324" y2="517.3491" gradientTransform="matrix(1 0 0 -1 -82 698.1102)">
		<stop  offset="0" style="stop-color:#808080;stop-opacity:0.25"/>
		<stop  offset="0.54" style="stop-color:#808080;stop-opacity:0.12"/>
		<stop  offset="1" style="stop-color:#808080;stop-opacity:0.1"/>
	</linearGradient>
	<path class="st10" d="M199.1,180.8h-59.2c-3.2,0-5.9,2.6-5.9,5.8v0v129.7c0,3.2,2.6,5.8,5.9,5.8l0,0h59.2c3.2,0,5.9-2.6,5.9-5.8
		l0,0V186.6C205,183.4,202.4,180.8,199.1,180.8L199.1,180.8z"/>
	<path class="st7" d="M140.6,181.8h57.9c3.3,0,6,2.7,6,6v127.8c0,3.3-2.7,6-6,6h-57.9c-3.3,0-6-2.7-6-6V187.8
		C134.6,184.5,137.3,181.8,140.6,181.8z"/>
	<rect x="139.7" y="194.8" class="st8" width="59.6" height="113.7"/>
	<circle class="st8" cx="162.5" cy="188.3" r="0.5"/>
	<path class="st8" d="M165.7,187.8h10.8c0.3,0,0.5,0.2,0.5,0.5l0,0c0,0.3-0.2,0.5-0.5,0.5h-10.8c-0.3,0-0.5-0.2-0.5-0.5l0,0
		C165.2,188,165.4,187.8,165.7,187.8z"/>
	<circle class="st8" cx="169.3" cy="314" r="3.8"/>
	<path class="st4" d="M127.4,331.6c0,0-7.2-24.4,1.3-42.3c3.6-7.5,4.7-16,3.1-24.2c-0.8-3.9-1.9-7.7-3.4-11.3"/>
	<path class="st3" d="M133.8,242.5c0,3-5.4,11.6-5.4,11.6s-5.4-8.7-5.4-11.6c0-3,2.4-5.4,5.4-5.4
		C131.4,237.1,133.8,239.5,133.8,242.5z"/>
	<path class="st3" d="M142.8,259c-1.6,2.5-10.9,6.8-10.9,6.8s0.2-10.2,1.8-12.7c1.5-2.6,4.8-3.5,7.4-1.9c2.6,1.5,3.5,4.8,1.9,7.4
		C142.9,258.8,142.9,258.9,142.8,259z"/>
	<path class="st3" d="M142.3,287.3c-2.7,1.3-12.8,0.4-12.8,0.4s5.3-8.7,8-10.1c2.7-1.2,5.9,0,7.2,2.7
		C145.8,282.9,144.8,285.9,142.3,287.3L142.3,287.3z"/>
	<path class="st3" d="M137.2,308.6c-2.4,1.8-12.6,2.6-12.6,2.6s3.7-9.5,6.2-11.3c2.5-1.7,5.9-1,7.5,1.5
		C139.9,303.8,139.4,306.9,137.2,308.6z"/>
	<path class="st3" d="M120.5,266.5c2.2,2.1,12.1,4.2,12.1,4.2s-2.4-9.9-4.6-12c-2-2.2-5.5-2.3-7.7-0.2c-2.2,2-2.3,5.5-0.2,7.7
		C120.3,266.2,120.4,266.3,120.5,266.5L120.5,266.5z"/>
	<path class="st3" d="M114.8,291.5c2.7,1.3,12.8,0.4,12.8,0.4s-5.3-8.7-8-10.1c-2.6-1.5-5.9-0.5-7.4,2.1c-1.5,2.6-0.5,5.9,2.1,7.4
		C114.6,291.3,114.7,291.4,114.8,291.5L114.8,291.5z"/>
	<path class="st3" d="M112.7,316.5c2.4,1.8,12.6,2.6,12.6,2.6s-3.7-9.5-6.2-11.3c-2.5-1.7-5.9-1-7.5,1.5
		C110,311.7,110.5,314.8,112.7,316.5z"/>
	
		<linearGradient id="SVGID_4_" gradientUnits="userSpaceOnUse" x1="514.8458" y1="353.8422" x2="514.8458" y2="526.0914" gradientTransform="matrix(1 0 0 -1 -82 698.1102)">
		<stop  offset="0" style="stop-color:#808080;stop-opacity:0.25"/>
		<stop  offset="0.54" style="stop-color:#808080;stop-opacity:0.12"/>
		<stop  offset="1" style="stop-color:#808080;stop-opacity:0.1"/>
	</linearGradient>
	<path class="st11" d="M556,254.1c-6-7.3-13.3-15.6-12.2-25.3c0.8-7.8-1.1-15.1-0.8-22.9c0.5-11.2-1.7-19.9-9.7-27.1
		c-4.7-4.2-12.6-7.5-14.9-6.6c-4.6,1.7-9.7,1-14.5,2.2c-3.6,0.8-6,2.2-7.5,3.8c-3,2.7-3.1,6.5-1.7,10.5c-4.7,8.6-1.5,19.4,7.1,24.1
		c0.6,0.3,1.1,0.6,1.7,0.8c-3.3,1.4-6.2,4.6-7.4,11.1c-0.8,4.5-2,8.9-3.5,13.2c-0.7,0.3-1.4,0.6-2.2,0.9c0.2,0.1,0.3,0.1,0.5,0.2
		c-0.4,0.1-0.7,0.3-1.1,0.4c0.6,0.3,1.3,0.4,2,0.6c-4.3,10.9-9.7,17.7-9.7,17.7s-10.1,2.2-14-1.7c0,0,0.6,0.7,1.5,1.9
		c-3.8-1.6-10.1-4.2-15.5-6.3c-3.9-1.6-4.9,0-4.9,2.2c-1,0.1-1.9,0.4-2.7,0.9c-1.2-0.7-2.4-1.4-3.6-1.9c-2.2-0.5-9.5-4.5-16.8,8.9
		c-4.2,7.8-15.1,22-23.5,32.5c-16.3,7.5-37.5,17-45.3,19.3h-5c-0.7-1.1-1.1-1.8-1.1-1.8l-0.4,0.3l-0.2-0.3c0,0-9.9,6.9-20,6.9
		c-1.4,0-2.9-0.2-4.2-0.5c-4.6-1.2-7.9-1.7-10.2-1.6c-2.8,0-4.3,0.6-5.3,1.8l0,0c-0.1,0.2-0.2,0.3-0.4,0.5l0,0
		c-0.1,0.2-0.2,0.4-0.3,0.5l0,0c-0.1,0.2-0.2,0.4-0.2,0.6c-0.1,0.4,0.1,0.8,0.3,1.1c0.1,0.2,0.3,0.4,0.4,0.5l0.3,0.3
		c1.3,1.3,3.6,3,6.4,5c0.8,0.5,1.7,1.1,2.6,1.7l1.7,1.1l1.6,1l0.6,0.4l0.7,0.4l1.2,0.8l0.7,0.4l1.4,0.8l1.1,0.7
		c2.9,1.7,5.9,3.4,8.5,4.9l1.9,1.1l0.2,0.1l1.2,0.7l2.1,1.1l1.4,0.8l0.7,0.4l0.7,0.4l0.1,0.1l1.2,0.7c0.5,0.1,1-0.1,1.4-0.4
		c0.4-1.5,1.2-4.8,2.2-5c0.9-0.2,5-7.3,6.1-12.1h11c2.2-0.2,4.3-0.5,6.4-1c-2.8,2-5.6,3.3-7.8,2.7c-4.6-1.1-9,1.7-9.4,4.4
		c0,0.1,0,0.1-0.1,0.2c0,0.1,0,0.1,0,0.2c0,0.1,0,0.1,0,0.2c0,0.1,0,0.1,0,0.2c0,0.1,0,0.1,0,0.2s0,0.1,0,0.2s0,0.1,0,0.2
		s0,0.1,0,0.2s0,0.1,0.1,0.2c0,0.1,0,0.1,0,0.1c0,0.1,0.1,0.2,0.1,0.3l0,0.1c0.1,0.1,0.1,0.2,0.2,0.3l0.1,0.1
		c0.1,0.1,0.1,0.2,0.2,0.2l0.1,0.1c0.1,0.1,0.1,0.1,0.2,0.2l0.2,0.1l0.2,0.2l0.2,0.1l0.3,0.2l0.2,0.1l0.4,0.2l0.2,0.1
		c0.2,0.1,0.4,0.2,0.6,0.2c0.4,0.1,0.8,0.2,1.2,0.4l0.5,0.1l0.7,0.2l0.4,0.1c0.5,0.1,1,0.2,1.5,0.3l0.7,0.1l0.6,0.1l1.4,0.2
		c0.9,0.1,1.7,0.3,2.7,0.4l2.4,0.4l3.1,0.4l0.7,0.1l1.1,0.2l1.6,0.2l1.1,0.1l0,0l2.8,0.4l0.9,0.1l1.8,0.2c2.3,0.3,4.6,0.5,6.7,0.8
		l2.4,0.3l1.2,0.1l0.5,0.1l1.5,0.2l0.8,0.1l1,0.1l1.4,0.1h0.2l0.9,0.1l0,0c0.4,0,0.9-0.3,0.9-0.7c0,0,0,0,0-0.1l0,0l0,0
		c0,0,0-0.1,0-0.1c0.1-0.1,0.1-0.3,0.1-0.4c0-1.3,0.2-2.7,0.5-4c0.1-0.2,0.1-0.4,0.2-0.7l0.1-0.3c0.1-0.3,0.2-0.5,0.3-0.8
		c0.1-0.2,0.2-0.4,0.2-0.6c0-0.1,0-0.1,0.1-0.2c0-0.1,0.1-0.2,0.1-0.3c1.1-3.9-0.2-11-0.6-13.9c-0.1-0.9-0.3-1.8-0.6-2.7
		c0.1,0,0.1,0,0.2,0c0.6-0.2,1.1-0.5,1.6-0.9c8.3-3,15.2-6.3,17.5-9.7c3.6-0.9,7.4-0.5,10.7,1.1c4.3,2.1,36.7,12.7,51.8,17.6
		c2.7,2.3,4.8,3.7,6,3.6c0,0,19.2,3.1,26.9-3c0.7,0.5,1.1,0.7,1.1,0.7s11.2-5.6,12.9-12.8c0.5-2.4,1-5.8,1.5-9.7
		c2.6-2.6,4.1-6.2,4.1-9.9c0.4-12.2,5.1-26.1,8.6-38.4c4.2,0.3,5.9-0.5,9.8-2.4l-0.2-0.2C555.5,254.3,555.7,254.2,556,254.1z
		 M491.6,272.3l-2.2-0.7c0.7-1,1.4-2,1.9-3.1L491.6,272.3z M479.6,277.5l13,7.8l0.1,1.6c-0.2,1.2-0.1,2.4,0.1,3.6
		C487,285.4,480.3,279.2,479.6,277.5L479.6,277.5z M474.2,266.1c-1.4-0.6-2.6-1.1-3.4-1.6c1.1,0.1,2.1,0.1,3,0.2
		C474,265.2,474.2,265.6,474.2,266.1L474.2,266.1z M439.4,278.8c0,0,2.2-5,7.3,3.3c0.8,1.3,2.2,3.4,4.1,5.9l-14.7-2
		C437.9,283.4,439.1,280.9,439.4,278.8L439.4,278.8z"/>
	<path class="st12" d="M471.7,258.7c0,0-10.3-4.3-18.4-7.6c-8.1-3.2-3.2,7.6-3.2,7.6s13.5,3.8,13.5,4.3c0,0.5,11.4,1.1,11.4,1.1
		L471.7,258.7z"/>
	<path class="st13" d="M471.7,258.7c0,0-10.3-4.3-18.4-7.6c-8.1-3.2-3.2,7.6-3.2,7.6s13.5,3.8,13.5,4.3c0,0.5,11.4,1.1,11.4,1.1
		L471.7,258.7z"/>
	<path class="st14" d="M515.6,215.9c0,0-18.4-9.7-21.7,9.2s-13.5,32-13.5,32s-9.7,2.2-13.5-1.6c0,0,9.2,10.8,4.9,11.9
		c0,0,9.7,7,14.1,4.9c4.3-2.2,7.6-16.8,9.2-20.6S502.6,214.8,515.6,215.9z"/>
	<path class="st15" d="M515.6,215.9c0,0-18.4-9.7-21.7,9.2s-13.5,32-13.5,32s-9.7,2.2-13.5-1.6c0,0,9.2,10.8,4.9,11.9
		c0,0,9.7,7,14.1,4.9c4.3-2.2,7.6-16.8,9.2-20.6S502.6,214.8,515.6,215.9z"/>
	<path class="st12" d="M505.3,209.4c0,0,11.4,13,11.9,23.8c0.5,10.8,13-11.4,14.1-11.9c1.1-0.5-10.8-19-11.9-24.9
		C518.3,190.4,505.3,209.4,505.3,209.4z"/>
	<polygon class="st12" points="513.2,214.9 506,221.4 509.4,235.1 518.6,226.4 517.5,217.8 	"/>
	<polygon class="st12" points="363.4,311.2 351,311.2 355.9,323.1 367.8,319.9 	"/>
	<path class="st15" d="M353.9,309.5c0,0-12.9,9-23.9,6.2c-11-2.8-14-1.7-15.3,1.9c-1.2,3.3,30.8,20.9,35.9,23.6
		c0.3,0.2,0.6,0.1,0.8-0.2c0,0,0-0.1,0.1-0.1c0.3-1.5,1.2-4.6,2.1-4.9c1.2-0.3,6.5-10.3,6.2-14.2S353.9,309.5,353.9,309.5z"/>
	<path class="st16" d="M353.3,309.5c0,0-12.9,9-23.9,6.2c-11-2.8-14-1.7-15.3,1.9c-1.2,3.3,30.8,20.9,35.9,23.6
		c0.3,0.2,0.6,0.1,0.8-0.2c0,0,0-0.1,0.1-0.1c0.3-1.5,1.2-4.6,2.1-4.9c1.2-0.3,6.5-10.3,6.2-14.2S353.3,309.5,353.3,309.5z"/>
	<path class="st14" d="M459.8,287.9l-36.3-4.9c0,0-59,28.2-66.1,28.7l1.6,12.5h10.8c4.3,0,46.6-9.2,52.5-18.4
		c3.4-0.9,7.1-0.5,10.3,1.1c5.4,2.7,57.4,19.5,57.4,19.5L459.8,287.9z"/>
	<path class="st15" d="M459.8,287.9l-36.3-4.9c0,0-59,28.2-66.1,28.7l1.6,12.5h10.8c4.3,0,46.6-9.2,52.5-18.4
		c3.4-0.9,7.1-0.5,10.3,1.1c5.4,2.7,57.4,19.5,57.4,19.5L459.8,287.9z"/>
	<polygon class="st12" points="395.4,304.7 389.4,312.3 395.4,315.5 404.1,309 	"/>
	<path class="st14" d="M498.8,296c0,0-19.5-16.7-20.8-19.7s-33.3-23.6-35.5-24.1s-9.2-4.3-16.2,8.7c-7,13-33,44.4-33,44.4
		s8.1,11.4,10.8,10.8s33-26,35.2-38.4c0,0,2.2-4.9,7,3.2c4.9,8.1,36.3,47.1,42.2,46.6c0,0,23.3,3.8,28.2-5.4
		C521.6,312.8,498.8,296,498.8,296z"/>
	<path class="st17" d="M509.9,216.7c0,0-6.8,3-7.3,15.4c-0.5,12.5-12.5,33.6-12.5,33.6l1.1,24.9c0,0,13,13,14.1,21.1
		c1.1,8.1,10.3,13.5,10.3,13.5s10.8-5.4,12.5-12.5c1.6-7,2.7-24.4,5.4-30.9c2.7-6.5,1.1-47.1,1.1-47.1l-8.1-14.1l-4.3-4.9l-11.4,13
		C510.7,228.9,504.5,220.5,509.9,216.7z"/>
	<path class="st15" d="M493.9,282.5c0,0-1.6-19.5,3.2-23.8l9.7-27.6c0,0,3.5-13.3,3-14.4c-0.5-1.1-12.7,10.6-12.7,10.6l-8.1,28.7
		l2.2,30.3L493.9,282.5z"/>
	<path class="st14" d="M493.4,282.5c0,0-1.6-19.5,3.2-23.8l9.7-27.6c0,0,3.8-13.5,3.2-14.6c-0.5-1.1-13,10.8-13,10.8l-8.1,28.7
		l2.2,30.3L493.4,282.5z"/>
	<path class="st12" d="M497.2,273.8c0,0-27.1-8.7-28.7-10.8s-19-16.2-24.9-6.5c-6,9.7,22.2,12.5,22.2,12.5l28.7,17.3L497.2,273.8z"
		/>
	<path class="st15" d="M396.6,312.2l-8-1.4c0,0-13.1,16.8-20,15.1c-6.8-1.7-13.1,5.7-5.9,8c6.5,2.1,34.7,5.1,40.1,5.7
		c0.4,0,0.8-0.3,0.9-0.7c0,0,0,0,0-0.1c0-2.1,0.5-4.2,1.2-6.1c1.4-3.5,0-11.2-0.4-14.1c-0.2-1.7-0.8-3.4-1.6-4.9L396.6,312.2z"/>
	<path class="st16" d="M396.4,312.8l-8-1.4c0,0-13.1,16.8-20,15.1c-6.8-1.7-13.1,5.7-5.9,8c6.5,2.1,34.7,5.1,40.1,5.7
		c0.4,0,0.8-0.3,0.9-0.7c0,0,0,0,0-0.1c0-2.1,0.4-4.2,1.2-6.1c1.4-3.5,0-11.2-0.4-14.1c-0.2-1.7-0.8-3.4-1.6-4.9L396.4,312.8z"/>
	<circle class="st15" cx="509.4" cy="198.3" r="17.3"/>
	<circle class="st12" cx="507.8" cy="198.3" r="17.3"/>
	<path class="st14" d="M524.8,215.3c0,0,20.6,7,20.6,21.7c0,14.6-11.4,37.9-11.9,56.9c-0.5,19-30.3,16.2-30.3,16.2s-4.3-63.9,0-68.8
		S527,217.5,524.8,215.3z"/>
	<path class="st15" d="M521,245.7c0,0-7.6,33.6-25.5,27.6c0,0-9.2,13.5-2.7,19.5c0,0,15.7,3.8,26-6.5c10.3-10.3,17.9-14.1,19.5-26.5
		c1.6-12.5,2.7-29.8-2.7-28.2C530.2,233.2,521,245.7,521,245.7z"/>
	<path class="st14" d="M521.6,245.1c0,0-7.6,33.6-25.5,27.6c0,0-9.2,13.5-2.7,19.5c0,0,15.7,3.8,26-6.5
		c10.3-10.3,17.9-14.1,19.5-26.5c1.6-12.5,2.7-29.8-2.7-28.2C530.8,232.7,521.6,245.1,521.6,245.1z"/>
	<path class="st17" d="M405.2,331.5c0,0,0,0.1,0,0.2c-0.4,0.9-0.7,1.9-0.9,2.9c0.1-0.4,0.3-0.9,0.5-1.3
		C404.9,332.7,405.1,332.1,405.2,331.5z"/>
	<path class="st17" d="M362.9,332.9c-2.2-0.7-3.2-1.9-3.2-3.2c-0.9,1.8-0.3,3.7,2.8,4.8c6.5,2.1,34.7,5.1,40.1,5.7
		c0.4,0,0.8-0.3,0.9-0.7c0,0,0,0,0-0.1l0,0c0-0.4-0.3-0.8-0.7-0.8C396.9,337.9,369.4,335,362.9,332.9z"/>
	<path class="st17" d="M314.8,316.6c0.1-0.4,0.3-0.8,0.5-1.1c-0.6,0.6-1,1.3-1.3,2.1c-1.2,3.3,30.8,20.9,35.9,23.6
		c0.3,0.2,0.6,0,0.8-0.2c0,0,0-0.1,0.1-0.2l0,0c0.1-0.3-0.1-0.5-0.3-0.6C344.9,337.1,313.7,319.9,314.8,316.6z"/>
	<path class="st17" d="M353.7,335c-0.3,0.1-0.6,0.5-0.8,1l0.1,0c0.2-0.1,0.6-0.5,1.1-1.2C353.9,334.8,353.8,334.9,353.7,335z"/>
	<path class="st15" d="M505.4,213.5c-1.5,3.4-1.8,7.2-3,10.7c-2.2,7-7.8,12.8-14.5,15c5.6,2.2,12.3-0.5,16.6-5s6.9-10.6,9.3-16.5
		c6.3,4.2,5.5,14,7.7,21.6c1.8,6.7,6.5,12.2,12.8,15.2c6.2,2.8,13.4,2.7,19.5-0.4c-5.8-7-14-16.8-13.1-26.2
		c0.8-7.6-4.7-13.4-4.3-21.1c0.5-10.8-3.6-16.3-11.4-23.3c-4.5-4.1,2.6-9.8-3.2-8.1c-2.3,0.7-4.7-1.8-7-1c-4.5,1.6-9.4,1-14,2.1
		C477,182.3,507.6,208.6,505.4,213.5z"/>
	<path class="st18" d="M505.9,213c-1.5,3.4-1.8,7.2-3,10.7c-2.2,7-7.8,12.8-14.5,15c5.6,2.2,12.3-0.5,16.6-5
		c4.3-4.5,6.9-10.6,9.3-16.5c6.3,4.2,5.5,14,7.7,21.6c1.8,6.7,6.5,12.2,12.8,15.2c6.2,2.8,13.4,2.7,19.5-0.4
		c-5.8-7-13.5-15.1-12.5-24.5c0.8-7.6-0.4-15.4,0-23.1c0.5-10.8-4.8-21.3-12.5-28.2c-4.5-4.1-11.6-4.6-13.9-3.8
		c-4.5,1.6-9.4,1-14,2.1C477.5,181.7,508.1,208.1,505.9,213z"/>
</g>
</svg>
